<?xml version="1.0" encoding="UTF-8"?>
<svg width="1200pt" height="1200pt" version="1.1" viewBox="0 0 1200 1200" xmlns="http://www.w3.org/2000/svg">
 <path d="m1200 600c0 214.36-114.36 412.44-300 519.62-185.64 107.18-414.36 107.18-600 0-185.64-107.18-300-305.26-300-519.62s114.36-412.44 300-519.62c185.64-107.18 414.36-107.18 600 0 185.64 107.18 300 305.26 300 519.62" fill="#c6123e"/>
 <path d="m919.91 280.09c-10.332-10.332-25.832-13.551-39.469-8.1172l-554.66 198.11c-30.789 11.809-29.902 57.859 1.3281 68.574l227.24 82.359c7.4375-7.4102 210.86-210.89 225.92-225.92 6.8203-6.8203 17.801-6.8203 24.621 0 6.8203 6.8203 6.8203 17.801 0 24.621l-225.92 225.92 82.449 227.3c10.273 31.027 57.445 32.176 68.84 0.5625l197.66-553.53c5.4922-13.699 2.3906-29.285-8.0312-39.883z" fill="#fff"/>
 <path d="m527.76 672.26c-6.7891-6.7891-17.801-6.7891-24.621 0l-91.305 91.305c-6.7891 6.7891-6.7891 17.801 0 24.621 6.7891 6.7891 17.801 6.7891 24.621 0l91.305-91.305c6.7891-6.7891 6.7891-17.801 0-24.621z" fill="#fff"/>
 <path d="m375.62 617.71-101.14 101.14c-6.7891 6.7891-6.7891 17.801 0 24.621 6.7891 6.7891 17.801 6.7891 24.621 0l101.14-101.14c6.7891-6.7891 6.7891-17.801 0-24.621-6.7891-6.7891-17.801-6.7891-24.621 0z" fill="#fff"/>
 <path d="m557.7 799.8-101.14 101.14c-6.7891 6.7891-6.7891 17.801 0 24.621 6.7891 6.7891 17.801 6.7891 24.621 0l101.14-101.14c6.7891-6.7891 6.7891-17.801 0-24.621-6.7891-6.7891-17.801-6.7891-24.621 0z" fill="#fff"/>
</svg>
