<?xml version="1.0" encoding="UTF-8"?>
<svg width="1200pt" height="1200pt" version="1.1" viewBox="0 0 1200 1200" xmlns="http://www.w3.org/2000/svg">
 <path d="m1200 600c0 214.36-114.36 412.44-300 519.62-185.64 107.18-414.36 107.18-600 0-185.64-107.18-300-305.26-300-519.62s114.36-412.44 300-519.62c185.64-107.18 414.36-107.18 600 0 185.64 107.18 300 305.26 300 519.62" fill="#c6123e"/>
 <path d="m926.12 599.89-228.2 342.3c-10.996 16.449-33.246 20.867-49.695 9.8672-16.414-10.977-20.855-33.168-9.9219-49.613l177.79-266.73h-506.38c-19.785 0-35.824-16.039-35.824-35.824 0-19.785 16.039-35.824 35.824-35.824h506.38l-177.79-266.73c-10.824-16.562-6.1719-38.762 10.391-49.586 16.348-10.684 38.238-6.3047 49.223 9.8438z" fill="#fff"/>
</svg>
