<?xml version="1.0" encoding="UTF-8"?>
<svg width="1200pt" height="1200pt" version="1.1" viewBox="0 0 1200 1200" xmlns="http://www.w3.org/2000/svg">
 <path d="m434.66 293c-77.977 0-141.74 63.766-141.74 141.74 0 77.977 63.766 141.56 141.74 141.56 77.977 0 141.74-63.582 141.74-141.56 0-77.977-63.766-141.74-141.74-141.74zm265.73 0.089844c-7.1602 0.58984-13.664 4.4102-17.668 10.375l-47.234 70.941h0.003907c-0.03125 0.058594-0.0625 0.11719-0.089844 0.17969-0.86719 1.3516-1.5938 2.793-2.168 4.293-0.0625 0.11719-0.12109 0.23828-0.17969 0.35547-0.55469 1.4961-0.95313 3.0391-1.1953 4.6172-0.03125 0.17578-0.0625 0.35547-0.089844 0.53516-0.23047 1.6172-0.28906 3.2578-0.17969 4.8906v0.26562c0.15234 1.5664 0.46094 3.1133 0.92188 4.6172 0.054687 0.23828 0.11328 0.47656 0.17578 0.71484 0.42578 1.2227 0.95312 2.4102 1.5703 3.5508 0.22266 0.48438 0.46094 0.96094 0.71484 1.4297 0.14453 0.26953 0.29297 0.53516 0.44922 0.80078l47.234 70.801h-0.003906c3.4688 5.2344 8.875 8.8711 15.027 10.105 6.1562 1.2383 12.547-0.023438 17.77-3.5078 5.1953-3.4883 8.793-8.8984 10-15.039 1.2109-6.1406-0.066407-12.508-3.5469-17.711l-22.418-33.531c71.344-6.8477 139.66 37.062 161.3 108.39 1.832 5.9648 5.9492 10.961 11.453 13.902 5.5078 2.9375 11.953 3.5781 17.926 1.7773 6.0039-1.8008 11.043-5.9141 14.012-11.434 2.9648-5.5195 3.6172-11.992 1.8125-17.992-27.75-91.477-115.62-148.75-207.29-141.88l23.199-34.824c3.4375-5.1875 4.6914-11.523 3.4805-17.633-1.207-6.1055-4.7773-11.488-9.9336-14.977-4.4531-2.9844-9.7891-4.3672-15.133-3.918zm-265.73 47.188c52.449 0 94.465 42.012 94.465 94.465 0 52.449-42.012 94.512-94.465 94.512-52.449 0-94.512-42.059-94.512-94.512 0-52.449 42.059-94.465 94.512-94.465zm267.94 283.25c-43.383 0-78.965 35.766-78.965 79.148v125.37c0 43.383 35.582 78.965 78.965 78.965h125.37c43.383 0 78.969-35.582 78.965-78.965v-125.37c0-43.383-35.582-79.148-78.965-79.148zm-385.51 39.762-0.003906-0.003907c-2.4648-0.058593-4.9258 0.26953-7.293 0.97266-6 1.793-11.043 5.8945-14.016 11.406-2.9766 5.5078-3.6406 11.977-1.8516 17.977 27.742 91.457 115.59 148.76 207.24 141.93l-23.109 34.641h0.003906c-3.5 5.2031-4.7852 11.582-3.5742 17.734 1.2109 6.1523 4.8164 11.57 10.027 15.059 5.2031 3.5 11.586 4.7812 17.738 3.5703 6.1484-1.2109 11.566-4.8203 15.055-10.031l46.402-69.742c2.0898-2.7383 3.5508-5.9023 4.2852-9.2695 0.10156-0.41406 0.19141-0.83203 0.26953-1.25 0.03125-0.17969 0.058594-0.35547 0.089844-0.53516 0.070312-0.41016 0.12891-0.82422 0.17578-1.2422 0.019531-0.17578 0.035156-0.35547 0.046875-0.53516 0.027344-0.41406 0.042969-0.83203 0.046875-1.25v-0.17578c0.050781-5.5078-1.8242-10.859-5.3008-15.129l-45.988-68.82c-3.4688-5.2188-8.8672-8.8438-15.008-10.082s-12.523 0.015625-17.742 3.4844c-5.1953 3.4922-8.793 8.8984-10.004 15.039-1.207 6.1445 0.066407 12.512 3.5508 17.711l22.371 33.531c-71.344 6.8477-139.62-37.066-161.25-108.39v0.003907c-1.4609-4.7461-4.3867-8.9102-8.3516-11.898-3.9648-2.9922-8.7734-4.6523-13.742-4.7539zm385.51 7.5156h125.37c18.035 0 31.871 13.84 31.871 31.871v125.37c0 18.035-13.84 31.734-31.871 31.734h-125.37c-18.031 0-31.734-13.699-31.734-31.734v-125.37c0-18.031 13.699-31.871 31.734-31.871z" fill="#003f7f"/>
</svg>
