<?xml version="1.0" encoding="UTF-8"?>
<svg width="1200pt" height="1200pt" version="1.1" viewBox="0 0 1200 1200" xmlns="http://www.w3.org/2000/svg">
 <path d="m741.66 688.64c-18.984 0-35.062-15.703-35.062-34.922 0-19.266 16.125-34.969 35.062-34.969 19.547 0 35.062 15.703 35.062 34.969 0.046875 19.219-15.469 34.922-35.062 34.922zm0-100.88c-36.234 0-65.578 29.578-65.578 65.953 0 36.422 29.344 65.953 65.578 65.953 36.797 0 66.141-29.578 66.141-65.953s-29.297-65.953-66.141-65.953zm-207 100.88c-18.984 0-35.062-15.703-35.062-34.922 0-19.266 16.078-34.969 35.062-34.969s35.062 15.703 35.062 34.969c0 19.219-16.078 34.922-35.062 34.922zm0-100.88c-36.234 0-66.141 29.578-66.141 65.953 0 36.422 29.906 65.953 66.141 65.953s66.141-29.578 66.141-65.953-29.906-65.953-66.141-65.953zm-207 100.88c-18.984 0-35.062-15.703-35.062-34.922 0-19.266 16.078-34.969 35.062-34.969 19.547 0 35.062 15.703 35.062 34.969 0 19.219-15.516 34.922-35.062 34.922zm0-100.88c-36.234 0-65.578 29.578-65.578 65.953 0 36.422 29.344 65.953 65.578 65.953s66.141-29.578 66.141-65.953c-0.046875-36.375-29.906-65.953-66.141-65.953zm705.56 166.4c34.5-138.28 34.5-279.52-0.5625-419.68-7.4531-30.375-31.031-52.078-62.109-56.625-70.734-10.359-143.21-17.344-214.5-20.484-4.5938-0.1875-9.1875-2.625-12.094-6.7969l-82.828-119.48-82.828 119.67c-2.2969 3.9844-6.8906 6.4219-12.094 6.6094-70.734 3.3281-142.6 10.125-213.94 20.719-30.469 4.5469-54.609 26.062-62.109 56.25-1.1719 5.3438-2.8594 10.734-4.0312 16.125 187.45-21.516 377.26-18.797 565.87 7.875 43.688 6.1406 77.625 36.75 88.547 79.781 31.031 123.66 35.062 249.52 12.656 375.24 5.7656-0.79688 11.484-1.6875 17.25-2.4844 31.172-4.4062 55.312-26.109 62.766-56.719zm-123.05 111c34.5-140.16 35.062-281.39 0.5625-419.63-8.0625-30.609-31.641-52.078-63.234-56.625-205.87-29.156-413.48-29.156-617.63 0-30.469 4.3125-54.609 26.062-62.672 56.203-35.062 139.55-35.062 280.97 0.5625 420.32 7.4531 30.188 31.031 51.891 62.109 56.391 70.734 10.359 143.21 17.344 213.94 20.484 5.1562 0.23438 9.1875 2.7188 12.094 6.8438l82.828 119.67 82.828-119.67c2.8594-3.9844 6.8906-6.4219 12.094-6.6094 71.297-3.3281 143.21-10.172 214.5-20.719 30.938-4.5469 54.516-26.25 62.016-56.672zm152.95-538.08c-10.359-42.844-44.297-73.453-87.984-79.828-69.562-10.359-140.29-17.156-209.9-20.625l-91.406-131.68c-6.1406-8.8125-19.219-8.8125-25.312 0l-90.844 131.86c-69.562 3.3281-140.29 10.359-209.9 20.484-43.125 6.375-77.062 36.797-87.422 79.406-2.2969 9.2812-4.5938 18.422-6.8906 27.656-9.1875 1.2656-18.422 2.5312-27.609 3.75-43.688 6.375-77.625 36.797-88.547 79.594-36.234 144.52-36.234 290.86 0 435.37 10.922 42.562 44.297 72.984 87.984 79.359 69.562 10.125 139.74 17.203 209.29 20.484l91.453 131.86c6.2344 9.1406 19.078 9.1406 25.312 0l91.453-131.68c69.562-3.5156 139.74-10.359 209.9-20.719 43.125-6.375 77.062-36.984 87.422-79.781 2.2969-9.0938 4.5938-18.234 6.8906-27.328 9.1875-1.2188 18.422-2.4844 27.609-3.75 44.297-6.375 78.188-36.797 88.547-79.969 35.625-142.97 35.625-289.4-0.046875-434.48z" fill="#003f7f" fill-rule="evenodd"/>
</svg>
