<?xml version="1.0" encoding="UTF-8"?>
<svg width="1200pt" height="1200pt" version="1.1" viewBox="0 0 1200 1200" xmlns="http://www.w3.org/2000/svg">
 <path d="m1200 600c0 214.36-114.36 412.44-300 519.62-185.64 107.18-414.36 107.18-600 0-185.64-107.18-300-305.26-300-519.62s114.36-412.44 300-519.62c185.64-107.18 414.36-107.18 600 0 185.64 107.18 300 305.26 300 519.62" fill="#003f7f"/>
 <path d="m749.08 478.14c-0.97266 2.5078-3.8359 3.7773-6.3477 2.7734-2.5078-0.97266-3.7773-3.8359-2.7734-6.3477 3.5703-9.1523 3.3359-18.98 0.26562-28.016-2.832-8.3242-8.0586-15.969-14.969-21.785-6.8789-5.7852-15.379-9.7695-24.797-10.805-10.363-1.1523-21.875 1.2695-33.652 8.6797-2.2734 1.4453-5.3125 0.76562-6.7617-1.5352-1.4453-2.2734-0.76562-5.3125 1.5352-6.7617 13.816-8.707 27.512-11.512 39.941-10.125 11.453 1.2695 21.758 6.082 30.051 13.078 8.2656 6.9648 14.523 16.117 17.918 26.125 3.7773 11.129 4.0156 23.293-0.44141 34.715zm-235.84 125.84c0.32422 21.254 9.0625 40.441 23.027 54.406 14.23 14.23 33.918 23.055 55.645 23.055 21.727 0 41.387-8.7969 55.645-23.055 13.965-13.965 22.699-33.18 23.027-54.406h146.84c42.566-0.58984 67.809-19.867 78.465-44.191 5.4922-12.516 7.0859-26.363 5.1953-39.645-1.8906-13.312-7.293-26.066-15.793-36.457-15.91-19.426-42.656-30.523-77.754-21.137 3.6328-23.086-5.2852-47.172-21.844-66.922-8.5625-10.215-19.188-19.277-31.203-26.449-12.016-7.1719-25.387-12.457-39.469-15.113-29.195-5.4922-61.402 0.32422-90.512 24.059-11.836-41.977-47.617-65.652-86.906-71.586-16.059-2.4219-32.707-1.8906-48.562 1.5938-15.883 3.4844-30.938 9.8906-43.809 19.219-29.254 21.168-47.145 57.27-37.344 107.86-45.637-7.0273-78.02 10.656-95.316 36.93-8.1484 12.367-12.93 26.598-14.168 41.062-1.2383 14.465 1.0352 29.168 7.0547 42.391 12.516 27.512 41.121 48.707 87.465 48.355h120.27zm55.469 28.074c-1.7422-2.0664-1.4766-5.1641 0.5625-6.9062 2.0664-1.7422 5.1641-1.4766 6.9062 0.58984l10.832 12.84v-69.578l-10.066 12.547c-1.6836 2.0977-4.7812 2.4492-6.8789 0.73828-2.0977-1.6836-2.4492-4.7812-0.73828-6.8789l18.566-23.172c0.88672-1.2695 2.3633-2.125 4.043-2.125 1.6836 0 3.1602 0.85547 4.043 2.125l18.391 24.621c1.625 2.1836 1.1797 5.2539-1.0039 6.8789s-5.2539 1.1797-6.8789-1.0039l-9.6836-12.93v69.285l11.633-13.047c1.8008-2.0352 4.8984-2.2148 6.9062-0.41406 2.0352 1.8008 2.2148 4.8984 0.41406 6.9062l-20.043 22.523c-0.88672 1.1211-2.2734 1.832-3.8086 1.832-1.625 0-3.0703-0.79688-3.957-2.0078zm23.23-98.184c19.012 0 36.25 7.7031 48.707 20.164 12.457 12.457 20.164 29.668 20.164 48.707 0 19.012-7.7031 36.25-20.164 48.707-12.457 12.457-29.668 20.164-48.707 20.164-19.012 0-36.25-7.7031-48.707-20.164-12.457-12.457-20.164-29.668-20.164-48.707 0-19.012 7.7031-36.25 20.164-48.707 12.457-12.457 29.668-20.164 48.707-20.164zm-215.5 228.43c5.1953-5.1953 11.984-8.8281 19.543-10.125v-105.54c0-3.3945 2.7461-6.1406 6.1406-6.1406h105.68c3.3945 0 6.1406 2.7461 6.1406 6.1406s-2.7461 6.1406-6.1406 6.1406h-99.543v99.391c7.5859 1.3008 14.348 4.9297 19.543 10.125 6.582 6.582 10.656 15.645 10.656 25.684 0 10.035-4.0742 19.129-10.656 25.684-6.582 6.582-15.645 10.656-25.684 10.656-10.035 0-19.129-4.0742-25.684-10.656-6.582-6.582-10.656-15.645-10.656-25.684 0-10.035 4.0742-19.129 10.656-25.684zm25.684 1.6523c-6.6406 0-12.664 2.6875-17.004 7.0547-4.3672 4.3398-7.0547 10.363-7.0547 17.004s2.6875 12.664 7.0547 17.004c4.3672 4.3398 10.363 7.0547 17.004 7.0547s12.664-2.6875 17.004-7.0547c4.3398-4.3672 7.0547-10.363 7.0547-17.004s-2.6875-12.664-7.0547-17.004c-4.3398-4.3398-10.363-7.0547-17.004-7.0547zm164.1 68.957c5.1953-5.1953 11.984-8.8281 19.543-10.125v-124.54c0-3.3945 2.7461-6.1406 6.1406-6.1406 3.3945 0 6.1406 2.7461 6.1406 6.1406v124.54c7.5859 1.3008 14.348 4.9297 19.543 10.125 6.582 6.582 10.656 15.645 10.656 25.684 0 10.035-4.0742 19.129-10.656 25.684-6.582 6.582-15.645 10.656-25.684 10.656-10.035 0-19.129-4.0742-25.684-10.656-6.582-6.582-10.656-15.645-10.656-25.684 0-10.035 4.0742-19.129 10.656-25.684zm25.711 1.625c-6.6406 0-12.664 2.6875-17.004 7.0547s-7.0547 10.363-7.0547 17.004 2.6875 12.664 7.0547 17.004c4.3672 4.3398 10.363 7.0547 17.004 7.0547s12.664-2.6875 17.004-7.0547c4.3398-4.3398 7.0547-10.363 7.0547-17.004s-2.6875-12.664-7.0547-17.004c-4.3672-4.3398-10.363-7.0547-17.004-7.0547zm206.79-63.559c-4.3398-4.3398-10.363-7.0547-17.004-7.0547s-12.664 2.6875-17.004 7.0547c-4.3398 4.3398-7.0547 10.363-7.0547 17.004s2.6875 12.664 7.0547 17.004c4.3672 4.3398 10.363 7.0547 17.004 7.0547s12.664-2.6875 17.004-7.0547c4.3398-4.3672 7.0547-10.363 7.0547-17.004s-2.6875-12.664-7.0547-17.004zm-10.895-18.805c7.5859 1.3008 14.348 4.9297 19.543 10.125 6.582 6.582 10.656 15.645 10.656 25.684 0 10.035-4.0742 19.129-10.656 25.684-6.582 6.582-15.645 10.656-25.684 10.656-10.035 0-19.129-4.0742-25.684-10.656-6.582-6.582-10.656-15.645-10.656-25.684 0-10.035 4.0742-19.129 10.656-25.684 5.1953-5.1953 11.984-8.8281 19.543-10.125v-99.391h-99.188c-3.3945 0-6.1406-2.7461-6.1406-6.1406s2.7461-6.1406 6.1406-6.1406h105.33c3.3945 0 6.1406 2.7461 6.1406 6.1406z" fill="#fff" fill-rule="evenodd"/>
</svg>
