<?xml version="1.0" encoding="UTF-8"?>
<svg width="1200pt" height="1200pt" version="1.1" viewBox="0 0 1200 1200" xmlns="http://www.w3.org/2000/svg">
 <path d="m1007.5 375.01c-18.672 0.015626-18.496 3.5039-23.586-2.7188-7.2656-8.9102-31.426-41.281-31.426-41.281-60.988-93.008-188.71-175.7-188.71-175.7-75.539-34.176-146-41.105-208.74-33.234-20.512-8.2578-54.801-19.809-80.93-17.246 0 0 29.742 7.1211 43.344 21.902-21.391-0.33594-48.559 1.3281-67.793 9.9688 0 0 16.703-1.4883 32.527 1.6328-128.1 41.426-209.17 135.3-209.17 135.3-160.09-31.312-191.42 104.41-191.42 104.41-20.801 101.44 81.105 175.52 83.742 176.29 2.6406 0.76953 19.809 10.895 19.809 10.895l11.871 52.93c0.89453 5.3438 1.8711 11.137 2.9297 17.457 8.9609 53.742 47.441 108.34 89.312 150.14l25.871-68.383c-90.336-58.863-129.3-175.43-90.656-277.5 34.047-90.016 121.59-150.5 217.81-150.5 28.129 0 55.84 5.0898 82.352 15.121 102.69 38.863 161.73 143.01 148.3 247.44 9.2969 3.6016 19.09 8.3984 29.281 15.039 45.473 29.586 91.055 122.51 91.055 122.51 4.3984 15.07 13.441 45.984 17.727 61.473 6.1133 22.031-2.3047 50.031-12.977 85.457l-4.4961 15.008c-15.344 52.191-79.246 78.977-91.902 83.793-16.258 6.207-49.215 16.625-87.457 16.625-15.215 0-29.938-1.6641-43.711-4.9609-36.734-8.7539-52.398-26.816-70.543-47.68-8.832-10.191-18.848-21.727-32.992-34.367-29.391-26.305-35.008-74.449-34.641-110.05-8.0156-0.35156-16.031-0.96094-23.984-2.1445l-36.559 96.656c8.7695 4.5273 16.656 7.6953 23.07 9.0703 48.719 10.434 55.68 31.312 55.68 31.312 69.617 121.82 278.43 66.145 330.66 41.762 52.207-24.352 13.922-69.617 90.48-114.86 76.574-45.23 132.27-174.02 132.27-174.02 118.34-17.406 118.34-146.19 118.34-146.19-6.7852-100.17-96.066-121.39-114.74-121.37zm-209.43 167.52c-14.289 0-25.871-11.281-25.871-25.199 0-13.922 11.602-25.199 25.871-25.199 14.305 0 25.871 11.281 25.871 25.199 0.003906 13.918-11.582 25.199-25.871 25.199zm-20.926-135.12c61.168-27.777 118.02 36.062 118.02 36.062-45.52-38.285-179.17-8.2695-118.02-36.062z" fill="#fff"/>
 <path d="m683.31 845.9c83.008-24.641-63.121 17.488-169.52-14.77-16.91-6.1289-37.473-16.289-42.656-18.734 10.719 5.8086 30.305 17.695 42.062 22.754 41.074 14.895 109.98 28.609 170.11 10.75z" fill="#fff"/>
 <path d="m497.7 375.66c-17.871-6.7539-36.527-10.191-55.441-10.191-64.77 0-123.7 40.719-146.64 101.33-14.816 39.152-13.504 81.742 3.7109 119.9 17.215 38.16 48.258 67.328 87.406 82.16 17.871 6.7695 36.527 10.191 55.441 10.191 1.8398 0 3.6484-0.16016 5.457-0.22266 22.672-30.832 43.215-55.871 65.902-83.664 21.633-26.48 64.398-48.062 83.902-51.953 3.9531-28.816-0.097656-58.223-12.336-85.406-17.195-38.16-48.234-67.344-87.402-82.145zm-93.375 171.02c-14.945 0-27.055-11.809-27.055-26.367 0-14.559 12.113-26.352 27.055-26.352 14.945 0 27.055 11.809 27.055 26.352-0.015625 14.559-12.109 26.367-27.055 26.367zm-78.688-96.078s74.191-42.48 123.36 3.2969c49.152 45.758-49.199-31.953-123.36-3.2969z" fill="#fff"/>
 <path d="m663.11 639.14c-10.223-2.1133-11.68 15.664-8.207 25.023 3.4883 9.4062 18.398 37.824 32.336 34.336 13.922-3.4727 8.1289-10.992 4.2227-34.336-4.2266-25.184-28.352-25.023-28.352-25.023z" fill="#fff"/>
 <path d="m518.48 320.75c-111.3-42.113-235.65 13.984-277.76 125.27-38.207 100.98 4.4336 212.69 95.777 263.98l-141.66 374.41c-2.2578 4.4336-3.6484 9.3906-3.6484 14.688 0 18.031 14.609 32.656 32.656 32.656 14 0 25.855-8.8633 30.48-21.23l142.86-377.59c102.41 22.031 208.34-33.488 246.54-134.46 42.113-111.27-13.965-235.62-125.25-277.73zm86.609 263.13c-34.031 89.953-134.53 135.28-224.48 101.25-89.953-34.031-135.28-134.56-101.25-224.5 34.031-89.953 134.54-135.28 224.5-101.25 89.949 34.035 135.26 134.55 101.23 224.5z" fill="#fff"/>
</svg>
