<?xml version="1.0" encoding="UTF-8"?>
<svg width="1200pt" height="1200pt" version="1.1" viewBox="0 0 1200 1200" xmlns="http://www.w3.org/2000/svg">
 <path d="m1200 600c0 214.36-114.36 412.44-300 519.62-185.64 107.18-414.36 107.18-600 0-185.64-107.18-300-305.26-300-519.62s114.36-412.44 300-519.62c185.64-107.18 414.36-107.18 600 0 185.64 107.18 300 305.26 300 519.62" fill="#003f7f"/>
 <path d="m751.14 524.43h-112.17l-60.812-209.88c-0.47656-1.6328-1.0039-3.2734-1.5938-4.8828-6.9062-18.969-20.781-34.113-39.078-42.645-18.289-8.5234-38.805-9.4219-57.781-2.5156-18.969 6.8984-34.113 20.781-42.645 39.07-8.5312 18.289-9.4297 38.82-2.5156 57.797 0.58203 1.5938 1.2109 3.1523 1.9062 4.7383l69.953 158.31h-57.547v113.36l-132.25 0.003906v226.71h113.36v75.57h37.785v-75.574h113.36v75.57h37.785l0.003906-75.57h113.36v75.57h37.785l0.003906-75.57h113.36v-226.71h-132.25zm-280.11-173.54c-0.35547-0.80078-0.67969-1.625-0.98438-2.4492-3.4531-9.4844-3-19.746 1.2617-28.891 4.2617-9.1445 11.836-16.082 21.32-19.535 4.2266-1.5391 8.5938-2.3047 12.945-2.3047 5.4414 0 10.867 1.1953 15.945 3.5586 9.1445 4.2617 16.082 11.836 19.543 21.332 0.29297 0.80859 0.55859 1.625 0.79297 2.4492l57.785 199.38h-51.918zm34.508 230.21h188.93v75.57h-188.93zm321.18 113.36v113.36l-453.43 0.003907v-113.36z" fill="#fff"/>
</svg>
