<?xml version="1.0" encoding="UTF-8"?>
<svg width="1200pt" height="1200pt" version="1.1" viewBox="0 0 1200 1200" xmlns="http://www.w3.org/2000/svg">
 <path d="m1200 600c0 214.36-114.36 412.44-300 519.62-185.64 107.18-414.36 107.18-600 0-185.64-107.18-300-305.26-300-519.62s114.36-412.44 300-519.62c185.64-107.18 414.36-107.18 600 0 185.64 107.18 300 305.26 300 519.62" fill="#003f7f"/>
 <path d="m802.76 719.63 11.41-11.41c17.836-17.836 27.66-41.488 27.66-66.73 0-51.992-42.32-94.391-94.391-94.391-25.242 0-48.895 9.8242-66.73 27.66l-11.41 11.41c-11.789 11.789-11.789 30.91 0 42.773 11.789 11.789 30.984 11.789 42.773 0l11.488-11.488c6.4219-6.4219 14.887-9.8984 23.957-9.8984 18.668 0 33.93 15.191 33.93 33.93 0 9.0703-3.5508 17.531-9.8984 23.957l-11.41 11.41c-11.789 11.789-11.789 30.91 0 42.773 5.8945 5.8945 13.602 8.8438 21.387 8.8438s15.492-2.9492 21.387-8.8438z" fill="#fff"/>
 <path d="m628.95 712.07c11.789-11.789 11.789-30.91 0-42.773-11.789-11.789-30.984-11.789-42.773 0l-11.488 11.488c-17.836 17.836-27.66 41.488-27.66 66.73 0 51.992 42.32 94.391 94.391 94.391 25.164 0 48.895-9.8242 66.73-27.66l11.41-11.41c11.789-11.789 11.789-30.91 0-42.773-11.789-11.789-30.984-11.789-42.773 0l-11.41 11.41c-6.4219 6.4219-14.887 9.8984-23.957 9.8984-18.668 0-33.93-15.191-33.93-33.93 0-9.0703 3.5508-17.531 9.8984-23.957l11.41-11.41z" fill="#fff"/>
 <path d="m358.17 728.47c0 62.496 50.859 113.36 113.36 113.36 16.703 0 30.23-13.527 30.23-30.23s-13.527-30.23-30.23-30.23c-29.172 0-52.898-23.73-52.898-52.898v-256.94c0-29.172 23.73-52.898 52.898-52.898h256.94c29.172 0 52.898 23.73 52.898 52.898 0 16.703 13.527 30.23 30.23 30.23s30.23-13.527 30.23-30.23c0-62.496-50.859-113.36-113.36-113.36h-256.94c-62.496 0-113.36 50.859-113.36 113.36v256.94z" fill="#fff"/>
</svg>
