<?xml version="1.0" encoding="UTF-8"?>
<svg width="1200pt" height="1200pt" version="1.1" viewBox="0 0 1200 1200" xmlns="http://www.w3.org/2000/svg">
 <path d="m601.4 556.39c0.92578 0.37891 1.6602 1.1133 2.0352 2.0391l0.023437 0.058594c64.363 158.17 96.543 255.34 96.543 291.52 0 55.227-44.773 100-100 100s-100-44.773-100-100c0-35.77 31.461-131.17 94.383-286.21l2.1836-5.3672c0.76953-1.8984 2.9336-2.8086 4.832-2.0391zm-1.3984-306.39c220.91 0 400 179.09 400 400 0 106.58-41.684 203.43-109.64 275.12l-0.054687 0.058594c-4.0898 4.3125-10.902 4.4922-15.215 0.40234l-0.10156-0.097656-58.293-58.293c-2.4062-2.4062-2.6602-6.1523-0.74219-8.8438l0.64062-0.76953c46.262-48.258 76.551-111.95 82.379-182.57l-48.973-0.003906c-9.2031 0-16.668-7.4609-16.668-16.668v-16.664c0-9.207 7.4648-16.668 16.668-16.668l48.973 0.003906c-5.2852-64.062-30.695-122.42-69.898-168.73l-35.977 35.984c-6.5117 6.5117-17.062 6.5117-23.57 0l-11.785-11.785c-6.5117-6.5078-6.5117-17.059 0-23.57l35.98-35.98c-46.309-39.199-104.66-64.609-168.72-69.895l-0.003906 48.973c0 9.2031-7.4609 16.668-16.668 16.668h-16.664c-9.207 0-16.668-7.4648-16.668-16.668l0.003906-48.973c-64.062 5.2852-122.41 30.695-168.72 69.895l35.977 35.98c6.5117 6.5117 6.5117 17.062 0 23.57l-11.785 11.785c-6.5078 6.5117-17.059 6.5117-23.57 0l-35.98-35.977c-39.199 46.309-64.613 104.66-69.895 168.72l48.973-0.003906c9.2031 0 16.668 7.4609 16.668 16.668v16.664c0 9.207-7.4648 16.668-16.668 16.668l-48.973 0.003906c5.707 69.164 34.875 131.68 79.531 179.56l2.8477 3.0156 0.64062 0.76953c1.918 2.6914 1.6641 6.4375-0.74219 8.8438l-58.293 58.293-0.10156 0.097656c-4.0234 3.8164-10.227 3.9141-14.359 0.40625l-0.85547-0.80859c-68.012-71.754-109.7-168.6-109.7-275.18 0-218.7 175.52-396.41 393.39-399.95zm0 550c-27.613 0-50 22.387-50 50s22.387 50 50 50 50-22.387 50-50-22.387-50-50-50z" fill="#003f7f" fill-rule="evenodd"/>
</svg>
