<?xml version="1.0" encoding="UTF-8"?>
<svg width="1200pt" height="1200pt" version="1.1" viewBox="0 0 1200 1200" xmlns="http://www.w3.org/2000/svg">
 <path d="m1200 600c0 214.36-114.36 412.44-300 519.62-185.64 107.18-414.36 107.18-600 0-185.64-107.18-300-305.26-300-519.62s114.36-412.44 300-519.62c185.64-107.18 414.36-107.18 600 0 185.64 107.18 300 305.26 300 519.62" fill="#003f7f"/>
 <path d="m831.38 742.17c0.73828-0.089844 1.4766-0.20703 2.2148-0.29688 23.527-3.3359 41.684-19.691 47.438-42.746 21.934-88.055 22.168-177.27-0.17578-267.75-5.668-22.996-23.703-39.352-47.113-42.805-44.84-6.6133-89.77-10.953-134.79-12.988-0.41406-0.03125-0.76562-0.20703-1.0039-0.5625l-58.422-84.52c-0.23438-0.35547-0.62109-0.5625-1.0625-0.5625s-0.82812 0.20703-1.0625 0.5625l-58.449 84.551c-0.23438 0.35547-0.58984 0.53125-1.0039 0.5625-44.781 2.0664-89.621 6.375-134.52 12.988-23.32 3.4258-41.297 19.66-47.086 42.508l-0.44141 1.7695c-0.11719 0.41406 0 0.85547 0.29687 1.1797 0.29688 0.32422 0.67969 0.47266 1.1211 0.44141 120.47-14.258 241.74-12.637 362.12 4.3984 31.379 4.4297 55.91 26.566 63.586 57.297 20.25 81.301 22.375 162.98 6.9375 244.46-0.089844 0.41406 0.03125 0.82812 0.32422 1.1523 0.29688 0.29687 0.67969 0.41406 1.0938 0.35547zm-142.49-138.71c16.738 0 30.289 13.551 30.289 30.289 0 16.738-13.551 30.289-30.289 30.289s-30.289-13.551-30.289-30.289c0-16.707 13.551-30.289 30.289-30.289zm-129.8 0c16.738 0 30.289 13.551 30.289 30.289 0 16.738-13.551 30.289-30.289 30.289-16.738 0-30.289-13.551-30.289-30.289 0-16.707 13.551-30.289 30.289-30.289zm-129.8 0c16.738 0 30.289 13.551 30.289 30.289 0 16.738-13.551 30.289-30.289 30.289-16.738 0-30.289-13.551-30.289-30.289 0-16.707 13.551-30.289 30.289-30.289zm-62.582-145.36c128.5-18.363 258.51-18.566 389.99 0.03125 23.527 3.3359 41.684 19.691 47.438 42.746 21.934 88.055 22.168 177.27-0.17578 267.75-5.668 22.996-23.703 39.352-47.113 42.805-44.84 6.6133-89.77 10.953-134.79 12.988-0.41406 0.03125-0.76563 0.20703-1.0039 0.5625l-58.391 84.52c-0.23438 0.35547-0.62109 0.5625-1.0625 0.5625s-0.82812-0.20703-1.0625-0.5625l-58.449-84.551c-0.23438-0.35547-0.58984-0.53125-1.0039-0.5625-44.781-2.0664-89.621-6.375-134.52-12.988-23.32-3.4258-41.297-19.66-47.086-42.508-22.613-89.387-22.613-178.8-0.03125-268.22 5.7266-22.969 23.824-39.23 47.262-42.566z" fill="#fff" fill-rule="evenodd"/>
</svg>
