<?xml version="1.0" encoding="UTF-8"?>
<svg width="1200pt" height="1200pt" version="1.1" viewBox="0 0 1200 1200" xmlns="http://www.w3.org/2000/svg">
 <path d="m836.72 406.5c-1.5469 3.9844-6.0938 6-10.078 4.4062-3.9844-1.5469-6-6.0938-4.4062-10.078 5.6719-14.531 5.2969-30.141 0.42188-44.484-4.5-13.219-12.797-25.359-23.766-34.594-10.922-9.1875-24.422-15.516-39.375-17.156-16.453-1.8281-34.734 2.0156-53.438 13.781-3.6094 2.2969-8.4375 1.2188-10.734-2.4375-2.2969-3.6094-1.2188-8.4375 2.4375-10.734 21.938-13.828 43.688-18.281 63.422-16.078 18.188 2.0156 34.547 9.6562 47.719 20.766 13.125 11.062 23.062 25.594 28.453 41.484 6 17.672 6.375 36.984-0.70312 55.125zm-374.48 199.82c0.51562 33.75 14.391 64.219 36.562 86.391 22.594 22.594 53.859 36.609 88.359 36.609s65.719-13.969 88.359-36.609c22.172-22.172 36.047-52.688 36.562-86.391h233.16c67.594-0.9375 107.67-31.547 124.6-70.172 8.7188-19.875 11.25-41.859 8.25-62.953-3-21.141-11.578-41.391-25.078-57.891-25.266-30.844-67.734-48.469-123.47-33.562 5.7656-36.656-8.3906-74.906-34.688-106.27-13.594-16.219-30.469-30.609-49.547-42s-40.312-19.781-62.672-24c-46.359-8.7188-97.5 0.51562-143.72 38.203-18.797-66.656-75.609-104.25-138-113.67-25.5-3.8438-51.938-3-77.109 2.5312-25.219 5.5312-49.125 15.703-69.562 30.516-46.453 33.609-74.859 90.938-59.297 171.28-72.469-11.156-123.89 16.922-151.36 58.641-12.938 19.641-20.531 42.234-22.5 65.203s1.6406 46.312 11.203 67.312c19.875 43.688 65.297 77.344 138.89 76.781h190.97zm88.078 44.578c-2.7656-3.2812-2.3438-8.2031 0.89062-10.969 3.2812-2.7656 8.2031-2.3438 10.969 0.9375l17.203 20.391v-110.48l-15.984 19.922c-2.6719 3.3281-7.5938 3.8906-10.922 1.1719-3.3281-2.6719-3.8906-7.5938-1.1719-10.922l29.484-36.797c1.4062-2.0156 3.75-3.375 6.4219-3.375s5.0156 1.3594 6.4219 3.375l29.203 39.094c2.5781 3.4688 1.875 8.3438-1.5938 10.922s-8.3438 1.875-10.922-1.5938l-15.375-20.531v110.02l18.469-20.719c2.8594-3.2344 7.7812-3.5156 10.969-0.65625 3.2344 2.8594 3.5156 7.7812 0.65625 10.969l-31.828 35.766c-1.4062 1.7812-3.6094 2.9062-6.0469 2.9062-2.5781 0-4.875-1.2656-6.2812-3.1875zm36.891-155.9c30.188 0 57.562 12.234 77.344 32.016s32.016 47.109 32.016 77.344c0 30.188-12.234 57.562-32.016 77.344s-47.109 32.016-77.344 32.016c-30.188 0-57.562-12.234-77.344-32.016s-32.016-47.109-32.016-77.344c0-30.188 12.234-57.562 32.016-77.344s47.109-32.016 77.344-32.016zm-342.19 362.72c8.25-8.25 19.031-14.016 31.031-16.078v-167.58c0-5.3906 4.3594-9.75 9.75-9.75h167.81c5.3906 0 9.75 4.3594 9.75 9.75s-4.3594 9.75-9.75 9.75h-158.06v157.82c12.047 2.0625 22.781 7.8281 31.031 16.078 10.453 10.453 16.922 24.844 16.922 40.781s-6.4688 30.375-16.922 40.781c-10.453 10.453-24.844 16.922-40.781 16.922s-30.375-6.4688-40.781-16.922c-10.453-10.453-16.922-24.844-16.922-40.781s6.4688-30.375 16.922-40.781zm40.781 2.625c-10.547 0-20.109 4.2656-27 11.203-6.9375 6.8906-11.203 16.453-11.203 27s4.2656 20.109 11.203 27 16.453 11.203 27 11.203 20.109-4.2656 27-11.203 11.203-16.453 11.203-27-4.2656-20.109-11.203-27c-6.8906-6.8906-16.453-11.203-27-11.203zm260.58 109.5c8.25-8.25 19.031-14.016 31.031-16.078v-197.76c0-5.3906 4.3594-9.75 9.75-9.75s9.75 4.3594 9.75 9.75v197.76c12.047 2.0625 22.781 7.8281 31.031 16.078 10.453 10.453 16.922 24.844 16.922 40.781s-6.4688 30.375-16.922 40.781c-10.453 10.453-24.844 16.922-40.781 16.922s-30.375-6.4688-40.781-16.922c-10.453-10.453-16.922-24.844-16.922-40.781s6.4688-30.375 16.922-40.781zm40.828 2.5781c-10.547 0-20.109 4.2656-27 11.203s-11.203 16.453-11.203 27 4.2656 20.109 11.203 27 16.453 11.203 27 11.203 20.109-4.2656 27-11.203c6.8906-6.8906 11.203-16.453 11.203-27s-4.2656-20.109-11.203-27-16.453-11.203-27-11.203zm328.36-100.92c-6.8906-6.8906-16.453-11.203-27-11.203s-20.109 4.2656-27 11.203c-6.8906 6.8906-11.203 16.453-11.203 27s4.2656 20.109 11.203 27 16.453 11.203 27 11.203 20.109-4.2656 27-11.203 11.203-16.453 11.203-27-4.2656-20.109-11.203-27zm-17.297-29.859c12.047 2.0625 22.781 7.8281 31.031 16.078 10.453 10.453 16.922 24.844 16.922 40.781s-6.4688 30.375-16.922 40.781c-10.453 10.453-24.844 16.922-40.781 16.922s-30.375-6.4688-40.781-16.922c-10.453-10.453-16.922-24.844-16.922-40.781s6.4688-30.375 16.922-40.781c8.25-8.25 19.031-14.016 31.031-16.078v-157.82h-157.5c-5.3906 0-9.75-4.3594-9.75-9.75 0-5.3906 4.3594-9.75 9.75-9.75h167.26c5.3906 0 9.75 4.3594 9.75 9.75z" fill="#003f7f" fill-rule="evenodd"/>
</svg>
