<?xml version="1.0" encoding="UTF-8"?>
<svg width="1200pt" height="1200pt" version="1.1" viewBox="0 0 1200 1200" xmlns="http://www.w3.org/2000/svg">
 <path d="m921.96 789.96 18.121-18.121c28.32-28.32 43.922-65.879 43.922-105.96 0-82.559-67.199-149.88-149.88-149.88-40.078 0-77.641 15.602-105.96 43.922l-18.121 18.121c-18.719 18.719-18.719 49.078 0 67.922 18.719 18.719 49.199 18.719 67.922 0l18.238-18.238c10.199-10.199 23.641-15.719 38.039-15.719 29.641 0 53.879 24.121 53.879 53.879 0 14.398-5.6406 27.84-15.719 38.039l-18.121 18.121c-18.719 18.719-18.719 49.078 0 67.922 9.3594 9.3594 21.602 14.039 33.961 14.039 12.359 0 24.602-4.6797 33.961-14.039z" fill="#003f7f"/>
 <path d="m645.96 777.96c18.719-18.719 18.719-49.078 0-67.922-18.719-18.719-49.199-18.719-67.922 0l-18.238 18.238c-28.32 28.32-43.922 65.879-43.922 105.96 0 82.559 67.199 149.88 149.88 149.88 39.961 0 77.641-15.602 105.96-43.922l18.121-18.121c18.719-18.719 18.719-49.078 0-67.922-18.719-18.719-49.199-18.719-67.922 0l-18.121 18.121c-10.199 10.199-23.641 15.719-38.039 15.719-29.641 0-53.879-24.121-53.879-53.879 0-14.398 5.6406-27.84 15.719-38.039l18.121-18.121z" fill="#003f7f"/>
 <path d="m216 804c0 99.238 80.762 180 180 180 26.52 0 48-21.48 48-48s-21.48-48-48-48c-46.32 0-84-37.68-84-84v-408c0-46.32 37.68-84 84-84h408c46.32 0 84 37.68 84 84 0 26.52 21.48 48 48 48s48-21.48 48-48c0-99.238-80.762-180-180-180h-408c-99.238 0-180 80.762-180 180z" fill="#003f7f"/>
</svg>
