<?xml version="1.0" encoding="UTF-8"?>
<svg width="1200pt" height="1200pt" version="1.1" viewBox="0 0 1200 1200" xmlns="http://www.w3.org/2000/svg">
 <path d="m1200 600c0 214.36-114.36 412.44-300 519.62-185.64 107.18-414.36 107.18-600 0-185.64-107.18-300-305.26-300-519.62s114.36-412.44 300-519.62c185.64-107.18 414.36-107.18 600 0 185.64 107.18 300 305.26 300 519.62" fill="#003f7f"/>
 <path d="m689.21 655.83c-11.957 0-22.082-9.8906-22.082-21.992 0-12.133 10.156-22.023 22.082-22.023 12.309 0 22.082 9.8906 22.082 22.023 0.03125 12.105-9.7422 21.992-22.082 21.992zm0-63.527c-22.82 0-41.297 18.625-41.297 41.535 0 22.938 18.48 41.535 41.297 41.535 23.172 0 41.652-18.625 41.652-41.535 0-22.906-18.449-41.535-41.652-41.535zm-130.36 63.527c-11.957 0-22.082-9.8906-22.082-21.992 0-12.133 10.125-22.023 22.082-22.023s22.082 9.8906 22.082 22.023c0 12.105-10.125 21.992-22.082 21.992zm0-63.527c-22.82 0-41.652 18.625-41.652 41.535 0 22.938 18.832 41.535 41.652 41.535 22.82 0 41.652-18.625 41.652-41.535 0-22.906-18.832-41.535-41.652-41.535zm-130.36 63.527c-11.957 0-22.082-9.8906-22.082-21.992 0-12.133 10.125-22.023 22.082-22.023 12.309 0 22.082 9.8906 22.082 22.023 0 12.105-9.7695 21.992-22.082 21.992zm0-63.527c-22.82 0-41.297 18.625-41.297 41.535 0 22.938 18.48 41.535 41.297 41.535 22.82 0 41.652-18.625 41.652-41.535-0.03125-22.906-18.832-41.535-41.652-41.535zm444.34 104.79c21.727-87.082 21.727-176.03-0.35547-264.3-4.6953-19.129-19.543-32.797-39.113-35.66-44.547-6.5234-90.188-10.922-135.08-12.898-2.8945-0.11719-5.7852-1.6523-7.6172-4.2812l-52.16-75.246-52.16 75.363c-1.4453 2.5078-4.3398 4.043-7.6172 4.1641-44.547 2.0977-89.801 6.375-134.73 13.047-19.188 2.8633-34.391 16.414-39.113 35.426-0.73828 3.3672-1.8008 6.7617-2.5391 10.156 118.05-13.551 237.58-11.836 356.36 4.9609 27.512 3.8672 48.887 23.145 55.762 50.242 19.543 77.875 22.082 157.14 7.9688 236.31 3.6328-0.5 7.2305-1.0625 10.863-1.5664 19.633-2.7734 34.832-16.441 39.527-35.719zm-77.492 69.902c21.727-88.266 22.082-177.21 0.35547-264.27-5.0781-19.277-19.926-32.797-39.824-35.66-129.65-18.363-260.39-18.363-388.96 0-19.188 2.7148-34.391 16.414-39.469 35.395-22.082 87.883-22.082 176.94 0.35547 264.7 4.6953 19.012 19.543 32.68 39.113 35.512 44.547 6.5234 90.188 10.922 134.73 12.898 3.2461 0.14844 5.7852 1.7109 7.6172 4.3086l52.16 75.363 52.16-75.363c1.8008-2.5078 4.3398-4.043 7.6172-4.1641 44.898-2.0977 90.188-6.4062 135.08-13.047 19.484-2.8633 34.332-16.531 39.055-35.691zm96.324-338.86c-6.5234-26.98-27.895-46.258-55.41-50.273-43.809-6.5234-88.352-10.805-132.19-12.988l-57.562-82.926c-3.8672-5.5508-12.105-5.5508-15.941 0l-57.211 83.039c-43.809 2.0977-88.352 6.5234-132.19 12.898-27.16 4.0156-48.531 23.172-55.055 50.008-1.4453 5.8438-2.8945 11.602-4.3398 17.418-5.7852 0.79688-11.602 1.5938-17.387 2.3633-27.512 4.0156-48.887 23.172-55.762 50.125-22.82 91.012-22.82 183.17 0 274.18 6.8789 26.805 27.895 45.961 55.41 49.977 43.809 6.375 88.004 10.832 131.8 12.898l57.594 83.039c3.9258 5.7578 12.016 5.7578 15.941 0l57.594-82.926c43.809-2.2148 88.004-6.5234 132.19-13.047 27.16-4.0156 48.531-23.293 55.055-50.242 1.4453-5.7266 2.8945-11.484 4.3398-17.211 5.7852-0.76562 11.602-1.5664 17.387-2.3633 27.895-4.0156 49.238-23.172 55.762-50.363 22.438-90.035 22.438-182.25-0.03125-273.62z" fill="#fff" fill-rule="evenodd"/>
</svg>
