<?xml version="1.0" encoding="UTF-8"?>
<svg width="1200pt" height="1200pt" version="1.1" viewBox="0 0 1200 1200" xmlns="http://www.w3.org/2000/svg">
 <path d="m600 60c-297.76 0-540 242.24-540 540s242.24 540 540 540 540-242.24 540-540-242.24-540-540-540zm0 1020c-264.67 0-480-215.33-480-480s215.33-480 480-480 480 215.33 480 480-215.33 480-480 480z" fill="#fff"/>
 <path d="m441.21 428.79c-11.711-11.723-30.719-11.723-42.422 0l-150 150c-11.723 11.723-11.723 30.707 0 42.422l150 150c5.8477 5.8633 13.527 8.793 21.207 8.793s15.359-2.9297 21.215-8.7852c11.723-11.723 11.723-30.707 0-42.422l-128.78-128.79 128.79-128.79c11.711-11.723 11.711-30.707-0.003906-42.43z" fill="#fff"/>
 <path d="m758.79 428.79c-11.723 11.723-11.723 30.707 0 42.422l128.78 128.79-128.78 128.79c-11.723 11.723-11.723 30.707 0 42.422 5.8555 5.8633 13.535 8.793 21.215 8.793s15.359-2.9297 21.215-8.7852l150-150c11.723-11.723 11.723-30.707 0-42.422l-150-150c-11.711-11.723-30.719-11.723-42.43-0.007813z" fill="#fff"/>
 <path d="m667.27 330.89c-16.066-3.9961-32.363 5.7617-36.383 21.828l-120 480c-4.0195 16.078 5.7461 32.363 21.828 36.383 2.4492 0.61328 4.8945 0.89844 7.2969 0.89844 13.441 0 25.68-9.1094 29.074-22.738l120-480c4.0312-16.055-5.7383-32.352-21.816-36.371z" fill="#fff"/>
</svg>
