<?xml version="1.0" encoding="UTF-8"?>
<svg width="1200pt" height="1200pt" version="1.1" viewBox="0 0 1200 1200" xmlns="http://www.w3.org/2000/svg">
 <path d="m842.99 497.34c-13.285-31.402-32.293-59.605-56.508-83.82-24.215-24.215-52.414-43.223-83.82-56.508-32.52-13.754-67.055-20.723-102.66-20.723s-70.141 6.9727-102.66 20.723c-31.402 13.285-59.605 32.293-83.82 56.508-24.215 24.215-43.223 52.414-56.508 83.82-13.754 32.52-20.723 67.055-20.723 102.66 0 35.594 6.9727 70.141 20.723 102.66 13.285 31.402 32.293 59.605 56.508 83.82 24.215 24.215 52.414 43.223 83.82 56.508 32.52 13.754 67.055 20.723 102.66 20.723s70.141-6.9727 102.66-20.723c31.402-13.285 59.605-32.293 83.82-56.508 24.215-24.215 43.223-52.414 56.508-83.82 13.754-32.52 20.723-67.055 20.723-102.66 0.011718-35.594-6.957-70.141-20.723-102.66zm-230.43-61.883h12.562v-72.742c46.992 4.9336 89.953 23.566 124.84 51.816l-51.359 51.359 8.8789 8.8789-54.852 54.852c-11.508-8.6289-25.188-14.496-40.055-16.633v-77.531zm-37.68-72.746v72.742h12.562v77.543c-14.867 2.1367-28.559 8.0039-40.055 16.633l-54.852-54.852 8.8789-8.8789-51.359-51.359c34.875-28.258 77.832-46.895 124.82-51.828zm-160.36 87.336 51.359 51.359 8.8789-8.8789 54.852 54.852c-8.6289 11.508-14.496 25.188-16.633 40.055h-77.543v-12.562h-72.742c4.9453-46.98 23.582-89.938 51.828-124.82zm-51.816 175.07h72.742v-12.562h77.543c2.1367 14.867 8.0039 28.547 16.633 40.055l-54.852 54.852-8.8789-8.8789-51.359 51.359c-28.258-34.875-46.895-77.832-51.828-124.82zm224.73 139.43h-12.562v72.742c-46.992-4.9336-89.953-23.566-124.84-51.816l51.359-51.359-8.8789-8.8789 54.852-54.852c11.508 8.6289 25.188 14.496 40.055 16.633v77.531zm-50.234-164.54c0-34.621 28.164-62.797 62.797-62.797s62.797 28.164 62.797 62.797c0 34.621-28.164 62.797-62.797 62.797s-62.797-28.176-62.797-62.797zm87.914 237.29v-72.742h-12.562l-0.003907-77.547c14.867-2.1367 28.559-8.0039 40.055-16.633l54.852 54.852-8.8789 8.8789 51.359 51.359c-34.871 28.262-77.828 46.898-124.82 51.832zm160.36-87.336-51.359-51.359-8.8789 8.8789-54.852-54.852c8.6289-11.508 14.496-25.188 16.633-40.055h77.543v12.562h72.742c-4.9453 46.98-23.582 89.938-51.828 124.82zm-20.93-175.07v12.562l-77.543 0.003907c-2.1367-14.867-8.0039-28.559-16.633-40.055l54.852-54.852 8.8789 8.8789 51.359-51.359c28.246 34.871 46.883 77.844 51.816 124.84l-72.73-0.003907zm373.18 11.762c-6.457-18.371-25.141-29.496-44.363-26.426l-104.72 16.727c-2.5781-44.41-12.602-87.527-29.93-128.47-16.621-39.277-39.301-75.168-67.598-106.96l85.871-62.219c15.77-11.426 21.109-32.496 12.684-50.062-3.9727-8.2695-10.633-14.93-18.887-18.887-17.555-8.4258-38.629-3.0859-50.062 12.684l-62.219 85.871c-31.789-28.285-67.68-50.977-106.96-67.598-40.945-17.316-84.07-27.348-128.47-29.93l16.727-104.72c3.0703-19.234-8.0508-37.906-26.426-44.363-8.6523-3.0352-18.07-3.0352-26.711 0-18.371 6.457-29.496 25.141-26.426 44.363l16.727 104.72c-44.41 2.5781-87.527 12.613-128.47 29.93-39.277 16.621-75.168 39.312-106.96 67.598l-62.219-85.871c-11.426-15.77-32.496-21.109-50.062-12.684-8.2695 3.9609-14.93 10.633-18.887 18.887-8.4258 17.555-3.0859 38.629 12.684 50.062l85.871 62.219c-28.285 31.789-50.977 67.68-67.598 106.96-17.316 40.945-27.348 84.07-29.93 128.47l-104.72-16.727c-19.234-3.0703-37.906 8.0508-44.363 26.426-3.0352 8.6523-3.0352 18.07 0 26.723 6.457 18.371 25.141 29.496 44.363 26.426l104.72-16.727c2.5781 44.41 12.602 87.527 29.93 128.47 16.621 39.277 39.301 75.168 67.598 106.96l-85.871 62.219c-15.77 11.426-21.109 32.496-12.684 50.062 3.9727 8.2695 10.633 14.93 18.887 18.887 17.555 8.4258 38.629 3.0859 50.062-12.684l62.219-85.871c31.789 28.285 67.68 50.977 106.96 67.598 40.945 17.316 84.07 27.348 128.47 29.93l-16.727 104.72c-3.0703 19.234 8.0508 37.906 26.426 44.363 8.6523 3.0352 18.07 3.0352 26.711 0 18.371-6.457 29.496-25.141 26.426-44.363l-16.727-104.72c44.41-2.5781 87.527-12.602 128.47-29.93 39.277-16.621 75.168-39.312 106.96-67.598l62.219 85.871c11.426 15.77 32.496 21.109 50.062 12.684 8.2695-3.9609 14.93-10.633 18.887-18.887 8.4258-17.555 3.0859-38.629-12.684-50.062l-85.871-62.219c28.285-31.789 50.977-67.68 67.598-106.96 17.316-40.945 27.348-84.07 29.93-128.47l104.72 16.727c19.234 3.0703 37.906-8.0508 44.363-26.426 3.0391-8.6523 3.0391-18.082 0-26.723zm-537.72 377.54c-200.81 0-364.19-163.37-364.19-364.19s163.38-364.19 364.19-364.19 364.19 163.38 364.19 364.19-163.38 364.19-364.19 364.19zm0.25391-663.07c7.6328 0 13.812-6.1797 13.812-13.812 0-7.6328-6.1797-13.812-13.812-13.812-7.6328 0-13.812 6.1797-13.812 13.812 0 7.6328 6.1797 13.812 13.812 13.812zm-77.367 10.113c7.3672-1.9805 11.746-9.5508 9.7695-16.922-1.9805-7.3672-9.5508-11.746-16.922-9.7695-7.3672 1.9805-11.746 9.5508-9.7695 16.922 1.9727 7.3711 9.5547 11.75 16.922 9.7695zm-72.105 29.797c6.6133-3.8164 8.8672-12.266 5.0508-18.875-3.8164-6.6133-12.266-8.8672-18.875-5.0508-6.6133 3.8164-8.8672 12.266-5.0508 18.875 3.8125 6.6133 12.262 8.8672 18.875 5.0508zm-61.945 47.449c5.3984-5.3984 5.3984-14.137 0-19.535-5.3984-5.3984-14.137-5.3984-19.535 0-5.3984 5.3984-5.3984 14.137 0 19.535 5.3867 5.3984 14.137 5.3984 19.535 0zm-66.422 66.922c6.6133 3.8164 15.059 1.5469 18.875-5.0508 3.8164-6.6133 1.5469-15.059-5.0508-18.875-6.6133-3.8164-15.059-1.5469-18.875 5.0508-3.8164 6.6016-1.5586 15.062 5.0508 18.875zm-20.816 50.078c-7.3672-1.9805-14.941 2.3984-16.922 9.7695-1.9805 7.3672 2.3984 14.941 9.7695 16.922 7.3672 1.9805 14.941-2.3984 16.922-9.7695 1.9766-7.3711-2.4023-14.941-9.7695-16.922zm-0.48047 94.27c0-7.6328-6.1797-13.812-13.812-13.812-7.6328 0-13.812 6.1797-13.812 13.812 0 7.6328 6.1797 13.812 13.812 13.812 7.6328 0 13.812-6.1797 13.812-13.812zm-6.8047 67.598c-7.3672 1.9805-11.746 9.5508-9.7695 16.922 1.9805 7.3672 9.5508 11.746 16.922 9.7695 7.3672-1.9805 11.746-9.5508 9.7695-16.922-1.9688-7.3711-9.543-11.738-16.922-9.7695zm27.852 76.824c-6.6133 3.8164-8.8672 12.266-5.0508 18.875 3.8164 6.6133 12.266 8.8672 18.875 5.0508 6.6133-3.8164 8.8672-12.266 5.0508-18.875-3.8164-6.5977-12.262-8.8672-18.875-5.0508zm46.777 66.996c-5.3984 5.3984-5.3984 14.137 0 19.535 5.3984 5.3984 14.137 5.3984 19.535 0 5.3984-5.3984 5.3984-14.137 0-19.535-5.3867-5.3867-14.137-5.3867-19.535 0zm81.395 47.555c-6.6133-3.8164-15.059-1.5469-18.875 5.0508-3.8164 6.6016-1.5469 15.059 5.0508 18.875 6.6016 3.8164 15.059 1.5469 18.875-5.0508 3.8281-6.6094 1.5625-15.059-5.0508-18.875zm72.059 29.918c-7.3672-1.9805-14.941 2.3984-16.922 9.7695-1.9805 7.3672 2.3984 14.941 9.7695 16.922 7.3672 1.9805 14.941-2.3984 16.922-9.7695 1.9805-7.3711-2.3984-14.953-9.7695-16.922zm77.352 10.246c-7.6328 0-13.812 6.1797-13.812 13.812 0 7.6328 6.1797 13.812 13.812 13.812 7.6328 0 13.812-6.1797 13.812-13.812 0-7.6328-6.1797-13.812-13.812-13.812zm77.367-10.113c-7.3672 1.9805-11.746 9.5508-9.7695 16.922 1.9805 7.3672 9.5508 11.746 16.922 9.7695 7.3672-1.9688 11.746-9.5508 9.7695-16.922-1.9727-7.3711-9.5547-11.75-16.922-9.7695zm72.105-29.797c-6.6133 3.8164-8.8672 12.266-5.0508 18.875 3.8164 6.6133 12.266 8.8672 18.875 5.0508 6.6133-3.8164 8.8672-12.266 5.0508-18.875-3.8125-6.6133-12.262-8.8672-18.875-5.0508zm61.945-47.449c-5.3984 5.3984-5.3984 14.137 0 19.535 5.3984 5.3984 14.137 5.3984 19.535 0 5.3984-5.3984 5.3984-14.137 0-19.535-5.3867-5.3984-14.137-5.3984-19.535 0zm66.422-66.922c-6.6133-3.8164-15.059-1.5469-18.875 5.0508-3.8164 6.6133-1.5469 15.059 5.0508 18.875 6.6016 3.8164 15.059 1.5469 18.875-5.0508 3.8164-6.6016 1.5586-15.062-5.0508-18.875zm20.816-50.09c7.3672 1.9805 14.941-2.3984 16.922-9.7695 1.9805-7.3672-2.3984-14.941-9.7695-16.922-7.3672-1.9805-14.941 2.3984-16.922 9.7695-1.9766 7.3828 2.4023 14.953 9.7695 16.922zm0.48047-94.258c0 7.6328 6.1797 13.812 13.812 13.812 7.6328 0 13.812-6.1797 13.812-13.812 0-7.6328-6.1797-13.812-13.812-13.812-7.6328 0-13.812 6.1797-13.812 13.812zm6.8047-67.598c7.3672-1.9805 11.746-9.5508 9.7695-16.922-1.9805-7.3672-9.5508-11.746-16.922-9.7695-7.3672 1.9805-11.746 9.5508-9.7695 16.922 1.9688 7.3711 9.543 11.738 16.922 9.7695zm-46.715-81.875c3.8164 6.6133 12.266 8.8672 18.875 5.0508 6.6133-3.8164 8.8672-12.266 5.0508-18.875-3.8164-6.6133-12.266-8.8672-18.875-5.0508-6.6133 3.8125-8.8672 12.262-5.0508 18.875zm-27.914-61.945c5.3984-5.3984 5.3984-14.137 0-19.535-5.3984-5.3984-14.137-5.3984-19.535 0-5.3984 5.3984-5.3984 14.137 0 19.535 5.3867 5.3867 14.137 5.3867 19.535 0zm-81.395-47.555c6.6133 3.8164 15.059 1.5469 18.875-5.0508 3.8164-6.6133 1.5469-15.059-5.0508-18.875-6.6133-3.8164-15.059-1.5469-18.875 5.0508-3.8281 6.6094-1.5625 15.059 5.0508 18.875zm-72.059-29.918c7.3672 1.9805 14.941-2.3984 16.922-9.7695 1.9805-7.3672-2.3984-14.941-9.7695-16.922-7.3672-1.9805-14.941 2.3984-16.922 9.7695-1.9805 7.3711 2.3984 14.953 9.7695 16.922z" fill="#2c3d4f"/>
</svg>
