<?xml version="1.0" encoding="UTF-8"?>
<svg width="1200pt" height="1200pt" version="1.1" viewBox="0 0 1200 1200" xmlns="http://www.w3.org/2000/svg">
 <path d="m733.92 669.98c-17.203-0.046875-17.062-26.156 0-26.203h363.28c7.2188 0 13.125 5.8594 13.125 13.078v524.02c0 7.2188-5.8594 13.125-13.125 13.125h-994.78c-7.2188 0-13.078-5.8594-13.078-13.125v-523.97c0-7.2188 5.8594-13.078 13.078-13.078h363.28c7.2188 0 13.078 5.8594 13.078 13.078s-5.8594 13.125-13.078 13.125l-350.16-0.046875v497.81h968.58v-497.81z" fill="#2c3d4f" fill-rule="evenodd"/>
 <path d="m254.11 1060.8c0 16.922-26.156 17.297-26.203 0v-403.92c0-7.2188 5.8594-13.078 13.125-13.078h224.72c17.062 0.14062 17.203 26.062 0 26.203l-211.64-0.046875zm479.81-390.84c-17.016 0.046875-17.203-26.203 0-26.203h224.72c7.2188 0 13.078 5.8594 13.078 13.078v403.92c0 7.2188-5.8594 13.078-13.078 13.078s-13.125-5.8594-13.125-13.078l0.046875-390.79zm224.72 497.81c16.875 0.046875 17.344 26.109 0 26.203h-717.61c-16.875-0.046875-17.344-26.109 0-26.203z" fill="#2c3d4f" fill-rule="evenodd"/>
 <path d="m465.74 643.78c17.203 0.09375 17.062 26.156 0 26.203h-370.64c-26.812 0-48.656-21.891-48.656-48.656v-47.906c0-26.812 21.891-48.656 48.656-48.656h1009.5c13.359 0 25.547 5.4844 34.359 14.297 21.094 16.219 12.703 59.578 14.297 82.266 0.046875 26.766-21.984 48.656-48.656 48.656h-370.64c-17.203-0.09375-17.062-26.109 0-26.203h370.64c5.9062 0 11.344-2.2969 15.328-6.0469 12.281-9.2812 5.5312-43.312 7.1719-64.359-0.046875-12.328-10.078-22.5-22.453-22.453h-1009.5c-12.328 0-22.453 10.125-22.453 22.453v47.906c0 12.328 10.125 22.453 22.453 22.453z" fill="#2c3d4f" fill-rule="evenodd"/>
 <path d="m465.74 524.72h268.22c7.2188 0 13.078 5.8594 13.078 13.078v152.9c0 2.2969-0.5625 4.4062-1.5938 6.2812l-44.391 99c-2.1562 4.8281-6.9375 7.7344-11.906 7.7344l-178.55 0.046875c-5.6719 0-10.547-3.6094-12.328-8.7188l-44.438-99.047c-0.75-1.7344-1.125-3.5625-1.125-5.3438l-0.046875-152.9c-0.046875-7.125 5.8125-13.031 13.078-13.031zm255.1 26.203h-242.02v137.11l40.172 89.578h161.68l40.172-89.578z" fill="#2c3d4f" fill-rule="evenodd"/>
 <path d="m102.42 1047.7h994.78c7.2188 0 13.125 5.8594 13.125 13.125v120.05c0 7.2188-5.8594 13.125-13.125 13.125l-994.78-0.046874c-7.2188 0-13.078-5.8594-13.078-13.125v-120.05c0-7.2188 5.8594-13.078 13.078-13.078zm981.71 26.203h-968.58v93.844h968.58z" fill="#2c3d4f" fill-rule="evenodd"/>
 <path d="m599.86 595.31c65.203 1.4531 65.203 89.953 0 91.359-65.25-1.4062-65.25-89.906 0-91.359zm17.016 32.391c-17.672-17.438-55.688 5.0625-34.125 26.672 17.719 17.438 55.734-5.0625 34.125-26.672z" fill="#2c3d4f" fill-rule="evenodd"/>
 <path d="m586.74 673.6c0.09375-17.109 26.109-17.156 26.203 0v46.547c0 7.2188-5.8594 13.125-13.078 13.125s-13.125-5.8594-13.125-13.125z" fill="#2c3d4f" fill-rule="evenodd"/>
 <path d="m197.39 6h804.89c29.719 0 56.766 12.141 76.312 31.734 19.547 19.688 31.734 46.594 31.734 76.312v94.969c0 7.2188-5.8594 13.078-13.125 13.078l-994.78 0.046875c-7.2188 0-13.078-5.8594-13.078-13.078v-95.016c0-59.391 48.703-108.05 108.05-108.05zm804.89 26.203h-804.89c-45.047 0-81.844 36.797-81.844 81.844v81.844h968.58v-81.844c0.046875-45-36.844-81.844-81.844-81.844z" fill="#2c3d4f" fill-rule="evenodd"/>
 <path d="m248.29 6h703.08c7.2188 0 13.078 5.8594 13.078 13.078v104.48c0 7.2188-5.8594 13.078-13.078 13.078l-703.08 0.046875c-7.2188 0-13.125-5.8594-13.125-13.078v-104.53c0-7.2188 5.9062-13.078 13.125-13.078zm690 26.203h-676.92v78.281h676.87z" fill="#2c3d4f" fill-rule="evenodd"/>
 <path d="m1073.5 524.72c-5.3438-13.828 15.562-24.047 23.297-11.297l11.344 17.25c5.7188 8.2969-0.79688 20.484-10.922 20.203l-994.82 0.046875c-10.594 0.32812-17.156-13.219-10.266-21.234l12.516-18.984c9.2344-14.109 30.844 0 21.984 14.062z" fill="#2c3d4f" fill-rule="evenodd"/>
 <path d="m1054.4 401.06c-4.875 16.359-29.812 9.0469-25.078-7.3594l50.438-171.56h-959.86l46.922 159.56c2.0156 6.9375-1.9219 14.203-8.8594 16.219s-14.203-1.9219-16.219-8.8594l-51.562-175.4c-3.2344-8.2969 3.2344-17.906 12.281-17.719 6.3281 1.125 993.28-1.4531 998.48 0.5625 6.9375 2.0156 10.875 9.2812 8.8594 16.219z" fill="#2c3d4f" fill-rule="evenodd"/>
 <path d="m331.5 373.36c-6.1406-3.7969-8.0156-11.812-4.2656-17.953 16.172-21.516 52.688 24.938 63.609 37.969 48.141-10.969 100.27-4.9219 144.37 16.453 72.938-110.91 253.31-106.45 321.14 7.5 9.2344 14.109-12.938 28.547-21.984 14.109-60.609-102.14-223.74-101.44-283.18 1.4531-3.4219 6.4219-11.484 8.8594-17.859 5.3438-43.266-24.141-96.656-30.516-144.74-17.391-5.3438 1.4062-11.25-0.65625-14.391-5.5781-10.922-16.969-25.547-31.359-42.703-41.906zm701.72 69.094c22.312 21.656 36.703 50.953 39.984 82.266h-942.52c-14.156-48.891 2.4375-104.48 40.453-137.44 12.984-10.969-4.9219-30.984-17.297-19.547-48.141 41.625-67.125 113.3-45.281 173.68 1.5469 5.4844 6.6094 9.5156 12.609 9.5156l966-0.046875c7.2188-0.046875 12.984-5.9531 12.938-13.172-0.28125-43.5-18.141-84.234-48.609-114-5.1562-5.0156-13.453-4.9219-18.469 0.23438-5.0625 5.2031-4.9688 13.5 0.1875 18.516z" fill="#2c3d4f" fill-rule="evenodd"/>
 <path d="m980.76 323.11c5.4844 24.516 18.375 47.531 44.109 54.422 19.922 4.2656 39.938 14.719 39.562 37.922 0.32812 23.203-19.547 33.609-39.562 37.922-26.062 6.8906-38.719 30.516-44.344 55.125-9.2812 31.734-57.844 31.266-66.422-0.75-3.8438-13.688-8.8125-30.234-19.219-39.703-9.5625-10.594-26.719-15.516-40.453-19.5-31.688-9.2812-31.266-57.844 0.75-66.422 13.688-3.8438 30.234-8.8125 39.75-19.266 10.594-9.5625 15.516-26.719 19.5-40.453 9.1406-31.781 57.75-31.266 66.328 0.70312zm-20.391 22.547c-1.5938-3.2344-3.9375-17.438-7.5469-19.312-4.4062-3.4219-12-1.5938-13.688 3.9844-7.3594 33.281-27.516 62.578-61.5 72.094-3.3281 1.6406-17.578 3.8906-19.406 7.6875-7.6406 13.359 11.156 15.281 19.406 18.188 13.922 4.2656 25.969 11.484 35.625 21.141 9.7031 9.7031 16.922 21.75 21.188 35.672l4.5469 14.859c1.9688 7.9219 14.297 8.2031 16.641 0.42188 7.3594-33.281 27.516-62.578 61.5-72.094l14.859-4.5469c8.1094-2.0625 8.1562-14.719 0-16.734-33.094-7.3594-62.156-27.516-71.625-61.359z" fill="#2c3d4f" fill-rule="evenodd"/>
 <path d="m275.39 274.18c4.9688 21.938 16.359 42.703 39.469 48.891 10.266 3.0938 24.469 6.4219 30.422 16.031 13.453 17.297 4.6406 45.328-16.875 51.188l-13.594 4.1719c-23.531 6.1875-34.641 27.562-39.75 49.641-8.8125 29.906-54.656 29.438-62.766-0.75-4.9688-21.891-16.359-42.703-39.469-48.844l-13.594-4.1719c-21.469-5.8594-30.375-33.891-16.875-51.188 12-16.734 39.703-13.359 52.641-29.109 9.5625-8.7188 13.969-24.141 17.531-36.562 8.9062-30 54.75-29.484 62.859 0.70312zm-20.812 21.234-4.1719-13.547c-1.5-6.1875-11.109-6.4219-12.984-0.375-4.5 16.875-11.297 35.297-23.859 46.969-11.672 12.516-29.859 19.266-46.594 23.719-6.3281 1.5938-6.375 11.531 0 13.078l13.594 4.1719c12.938 3.9375 23.953 10.641 33.047 19.594 12.469 11.578 19.266 29.859 23.719 46.594 1.5 6.1875 11.109 6.4219 12.984 0.375l4.2656-13.969c8.8125-31.359 35.531-49.922 66.188-56.766 4.5469-1.125 6.1406-7.0781 3.5625-10.641-0.84375-1.125-2.0625-1.9688-3.5625-2.4375-30.609-6.8438-57.375-25.406-66.188-56.766z" fill="#2c3d4f" fill-rule="evenodd"/>
</svg>
