<?xml version="1.0" encoding="UTF-8"?>
<svg width="1200pt" height="1200pt" version="1.1" viewBox="0 0 1200 1200" xmlns="http://www.w3.org/2000/svg">
 <path d="m326.29 828.97c6.332-0.054688 12.656-0.63281 18.895-1.7305 6.0156-1.0195 11.969-2.375 17.828-4.0664 74.32-20.402 179.23-91.816 273.78-186.38 94.559-94.555 165.97-199.46 186.32-273.57l0.027344-0.097656 0.03125-0.10938 0.003906-0.039063c1.6836-5.8477 3.0391-11.789 4.0625-17.789v-0.035156c2.2266-12.945 4.2461-36.359-7.1523-47.762-13.195-13.207-51.984-15.156-121.2 18.926-68.258 33.523-145.75 91.895-218.21 164.36h-0.003906c-64.543 62.652-119.14 134.8-161.9 213.93-14.824 29.332-46.582 100.28-21.383 125.48 8.1445 6.5469 18.488 9.7266 28.902 8.8867zm277.11-193.06c-1.8164 1.7422-3.6445 3.4336-5.4648 5.1562-3.7031 3.5078-7.4102 7.0039-11.129 10.43-2.1523 1.9805-4.3086 3.918-6.4648 5.8711-3.4219 3.1016-6.8438 6.1875-10.273 9.2188-2.2578 1.9922-4.5156 3.9531-6.7734 5.9102-3.3555 2.9141-6.7109 5.793-10.07 8.6406-2.2578 1.9102-4.5156 3.8047-6.7734 5.6797-3.4062 2.832-6.8125 5.625-10.215 8.3711-2.1797 1.7617-4.3555 3.5234-6.5312 5.2539-3.5625 2.832-7.1211 5.5977-10.672 8.3398-1.9805 1.5273-3.9609 3.0742-5.9336 4.5703-4.0078 3.043-8 5.9922-11.984 8.9062-1.4922 1.0938-2.9922 2.2227-4.4805 3.2969-11.141 8.0469-22.141 15.574-33 22.586-0.71484 0.46094-1.4141 0.88281-2.1289 1.3398-4.6289 2.9609-9.2305 5.8398-13.785 8.5938-1.3359 0.80859-2.6484 1.5625-3.9766 2.3516-3.9258 2.332-7.8281 4.6094-11.688 6.7812-1.4883 0.83594-2.9609 1.6367-4.4375 2.4492-3.6602 2.0117-7.2891 3.9531-10.887 5.8164-1.5156 0.78516-3.0195 1.5469-4.5234 2.3047-3.5195 1.7695-7.0039 3.4609-10.445 5.0742-1.4688 0.6875-2.9414 1.3789-4.3945 2.0391-3.4414 1.5586-6.8242 3.0117-10.176 4.4023-1.3672 0.56641-2.7539 1.1641-4.1055 1.707-0.80469 0.32031-1.5703 0.57812-2.3711 0.88672 31.758-71.555 95.156-158.25 174.03-237.13 78.887-78.883 165.59-142.29 237.15-174.04-0.27344 0.69922-0.49609 1.375-0.77734 2.0781-0.71875 1.8047-1.5078 3.6484-2.2734 5.4805-1.1875 2.832-2.4062 5.6758-3.7109 8.5703-0.87891 1.9453-1.8008 3.9141-2.7305 5.8867-1.3594 2.8789-2.7734 5.7852-4.2383 8.7227-1.0117 2.0234-2.043 4.0508-3.1055 6.0977-1.5508 2.9844-3.1719 5.9961-4.8281 9.0273-1.1172 2.043-2.2266 4.082-3.3906 6.1445-1.7969 3.1836-3.6836 6.4023-5.5898 9.6328-1.1562 1.957-2.2773 3.8984-3.4727 5.8711-2.2383 3.6914-4.5898 7.4219-6.9609 11.164-0.98047 1.543-1.9062 3.0703-2.9102 4.625-3.4375 5.3203-7.0039 10.684-10.695 16.09-0.55078 0.80469-1.1445 1.6211-1.6992 2.4258-3.1758 4.6055-6.4219 9.2266-9.7773 13.879-1.375 1.9062-2.8203 3.8281-4.2266 5.7422-2.6289 3.5781-5.2656 7.1562-7.9922 10.754-1.6602 2.1914-3.3789 4.3906-5.0742 6.5859-2.5898 3.3516-5.1992 6.707-7.8711 10.07-1.8242 2.293-3.6797 4.5898-5.5391 6.8867-2.6641 3.2891-5.3672 6.5859-8.1016 9.8828-1.9414 2.3359-3.9023 4.6719-5.8789 7.0078-2.793 3.3008-5.625 6.5977-8.4961 9.8984-1.9844 2.2891-3.9688 4.5742-5.9883 6.8594-3.0195 3.418-6.0977 6.832-9.1875 10.242-1.957 2.1602-3.8984 4.3242-5.8828 6.4766-3.4258 3.7188-6.9258 7.4258-10.43 11.129-1.7227 1.8203-3.4141 3.6484-5.1562 5.4648-5.2812 5.5039-10.641 10.98-16.082 16.43-5.4453 5.4336-10.922 10.793-16.43 16.07zm-263.2 69.516c41.605-76.867 94.699-146.93 157.45-207.79 70.641-70.645 145.87-127.39 211.84-159.79 5.2578-2.5898 10.273-4.9375 15.039-7.0391 2.2812-1.0117 4.3359-1.8086 6.5078-2.7148 2.3594-0.98438 4.8281-2.0703 7.0625-2.9414 3.4844-1.3594 6.7188-2.5 9.8984-3.5977 0.71094-0.24609 1.5117-0.56641 2.207-0.80078v0.003907c13.234-4.8984 27.156-7.6836 41.258-8.2461 3.9766-0.27734 7.9648 0.37109 11.648 1.8945 0.070313 0.11719 0.13281 0.23438 0.19141 0.35547 0.0625 0.125 0.125 0.25 0.19141 0.41797 0.078125 0.19922 0.16406 0.47266 0.25 0.72656 0.078125 0.23828 0.15625 0.46875 0.23438 0.76172 0.085937 0.3125 0.16406 0.70703 0.24219 1.0781 0.074219 0.35156 0.15234 0.68359 0.22266 1.0898 0.078124 0.45312 0.13672 1 0.20312 1.5195 0.054688 0.44531 0.11719 0.85938 0.16016 1.3555 0.054687 0.625 0.082031 1.3594 0.11328 2.0664 0.023438 0.51562 0.058594 0.99219 0.070312 1.5547 0.015626 0.84375-0.019531 1.8086-0.042968 2.7578-0.015625 0.55469-0.007813 1.0586-0.039063 1.6523-0.058593 1.168-0.18359 2.4766-0.30859 3.7852-0.046876 0.49219-0.066407 0.92188-0.125 1.4375-0.21484 1.8906-0.49609 3.9141-0.87109 6.0938-0.60938 3.5-1.3086 6.7031-2.0586 9.8086-77.789 29.617-175.79 98.945-263.75 186.91-87.961 87.965-157.29 185.97-186.91 263.76-3.0742 0.74219-6.2695 1.4414-9.7734 2.0547-8.7656 2.4531-18.062 2.2891-26.734-0.47266-4.9023-4.8984-5.1953-36.293 25.832-97.691z" fill="#2c3d4f"/>
 <path d="m845.54 271.93c-58.039-58.055-229.5 22.465-390.32 183.28-160.82 160.82-241.33 332.27-183.28 390.32l82.562 82.562c14.656 13.457 34.141 20.391 54 19.219 38.023-2.3203 75.066-13.004 108.49-31.281 71.703-35.199 152.61-96.008 227.83-171.22 75.215-75.219 136.02-156.13 171.22-227.83 37.055-75.504 41.344-133.21 12.062-162.49zm-373.36 200.25c129.2-129.19 253.11-195.77 318.86-195.77h-0.003906c13.676-1.0078 27.184 3.4883 37.523 12.488 14.461 14.465 13.688 39.691 10.496 58.281-1.8672 10.359-4.4961 20.566-7.8633 30.539-24.898 75.188-94.555 176.2-185.91 267.57-91.367 91.355-192.38 161.01-267.55 185.91-9.9688 3.3672-20.176 5.9961-30.531 7.8633-18.59 3.2109-43.832 3.9766-58.301-10.496-41.793-41.797 21.875-194.97 183.28-356.38zm255.66 255.66c-161.41 161.4-314.57 225.1-356.38 183.29l-46.102-46.102 0.33203-0.015625 0.21484 0.015625h-0.003906c8.5078-0.054688 17-0.83203 25.379-2.3203 82.477-14.312 201.63-91.117 310.97-200.45 109.34-109.34 186.14-228.49 200.45-310.99 0.77344-4.4961 1.3477-8.8477 1.7266-13.062 0.14062-1.5234 0.13281-2.9414 0.22266-4.4297 0.16016-2.6523 0.34375-5.3203 0.34375-7.8555 0-0.17969 0.023438-0.375 0.023438-0.55469l46.102 46.098c41.797 41.797-21.875 194.97-183.28 356.38z" fill="#2c3d4f"/>
 <path d="m606.54 740.33c-5.375 4.1406-9.1914 9.9766-10.836 16.562-1.6445 6.582-1.0195 13.527 1.7773 19.711-11.086 8.3242-18.383 13.551-29.504 21.098v0.003906c-0.69531-3.5664-0.34375-7.2578 1.0156-10.625 1.3633-3.3672 3.6719-6.2695 6.6484-8.3477 1.3047-0.92188 2.1875-2.3281 2.4531-3.8984 0.26562-1.5742-0.10547-3.1875-1.0352-4.4883-0.92578-1.3008-2.332-2.1758-3.9062-2.4375-1.5742-0.25781-3.1875 0.11719-4.4844 1.0508-6.4805 4.3984-10.977 11.164-12.523 18.844-1.5469 7.6797-0.015625 15.66 4.2578 22.223l0.003906 0.011718c2.4023 3.625 3.2227 8.0703 2.2734 12.312-1.1914 5.0898-4.3359 9.5078-8.7539 12.297-4.4219 2.793-9.7617 3.7344-14.871 2.625-4.2305-0.95312-7.8906-3.5898-10.137-7.3008-2.2305-4.1328-2.7852-8.9688-1.5391-13.5s4.1875-8.4062 8.2188-10.82c2.793-1.7734 3.625-5.4727 1.8555-8.2695-1.7695-2.793-5.4648-3.6328-8.2656-1.8672-7.9336 4.9141-13.23 13.141-14.418 22.398-8.7148-3.3633-18.48-2.6328-26.602 1.9883-6.9609 3.6445-12.211 9.8789-14.621 17.355-2.4141 7.4766-1.7969 15.602 1.7188 22.629 1.9727 3.8477 2.2891 8.332 0.87891 12.422-1.7891 4.9883-5.457 9.0781-10.227 11.395-4.7695 2.3125-10.254 2.6641-15.281 0.98047-4.082-1.4062-7.4102-4.4141-9.2227-8.332l-0.011718-0.027344v-0.003906c-4.8125-9.3477-14.027-15.621-24.488-16.676-10.461-1.0508-20.742 3.2617-27.32 11.461-6.582 8.1992-8.5625 19.172-5.2656 29.156 0.57031 1.4844 1.7109 2.6797 3.168 3.3242 1.4531 0.64453 3.1055 0.68359 4.5898 0.10938 16.887-6.5234 26.297-10.414 41.473-17.215 3.3164 4.3633 7.8359 7.6602 13 9.4883 8.0742 2.7852 16.922 2.2578 24.605-1.4727 7.6836-3.7305 13.574-10.359 16.375-18.426 0.40625-1.2344 0.73047-2.4883 0.97266-3.7617 1.1875 0.52734 2.4102 0.98437 3.6562 1.3594 8.1836 2.3594 16.973 1.332 24.395-2.8477 2.8594-1.6328 3.8711-5.2617 2.2656-8.1367s-5.2266-3.918-8.1133-2.3398c-4.5938 2.5938-10.031 3.2461-15.105 1.8203-4.168-1.1797-7.668-4.0078-9.7031-7.8281-2.5156-5.7617-1.9844-12.395 1.4141-17.684 3.3984-5.2891 9.2109-8.5312 15.496-8.6406 6.2852-0.10937 12.207 2.9258 15.789 8.0898 3.8906 6.5078 10.266 11.145 17.656 12.844 8.2578 1.8633 16.918 0.37109 24.078-4.1523 7.1562-4.5273 12.223-11.711 14.082-19.969 1.168-5.3867 0.73047-10.996-1.2617-16.137 11.578-7.8398 19.207-13.262 30.09-21.41 0.55469 2.1836 0.66016 4.4531 0.30859 6.6797-0.85547 5.1328-3.7383 9.707-8.0039 12.695-2.6953 1.9258-3.3242 5.6758-1.3984 8.375 1.9258 2.6992 5.6758 3.3242 8.3711 1.3984 6.8945-4.875 11.539-12.32 12.891-20.652 0.19922-1.293 0.3125-2.5977 0.33984-3.9023 1.2656 0.32812 2.5508 0.57812 3.8438 0.73828 8.3789 0.95703 16.793-1.4766 23.367-6.7578 2.5898-2.0703 3.0117-5.8477 0.9375-8.4375-2.0703-2.5898-5.8477-3.0078-8.4375-0.9375-4.0312 3.2812-9.2109 4.8008-14.379 4.2266-4.3242-0.48438-8.2656-2.7148-10.914-6.1719-3.4688-5.207-4.0859-11.812-1.6406-17.574 2.4453-5.7617 7.625-9.9062 13.781-11.027 6.1562-1.125 12.465 0.92578 16.785 5.4531 2.1445 2.5273 5.9297 2.8398 8.457 0.69531 2.5273-2.1406 2.8398-5.9258 0.69531-8.4531-5.1328-5.9062-12.383-9.5586-20.184-10.176-7.8008-0.61719-15.531 1.8555-21.531 6.8828zm-212.08 149.57c0.16797-3.6797 1.3906-7.2344 3.5195-10.242 2.1328-3.0039 5.082-5.332 8.5-6.707 2.5-1.0547 5.1836-1.6055 7.8984-1.6133 4.6797-0.054688 9.1992 1.7227 12.594 4.9453-12.02 5.3672-20.262 8.8164-32.512 13.617z" fill="#2c3d4f"/>
 <path d="m900.26 384.33c-9.9844-3.2969-20.961-1.3164-29.16 5.2617-8.2031 6.5781-12.516 16.863-11.461 27.328 1.0547 10.461 7.3359 19.676 16.688 24.484l0.023437 0.011718v0.003907c3.918 1.8086 6.9258 5.1406 8.3281 9.2227 1.082 3.0508 1.3711 6.332 0.83984 9.5273l-35.449-17.242v-0.003906c-1.4336-0.70312-3.0859-0.80859-4.5938-0.28906-1.5117 0.51953-2.75 1.6172-3.4492 3.0508-0.69922 1.4336-0.79688 3.0898-0.26953 4.5977 0.52344 1.5039 1.625 2.7422 3.0625 3.4336l35.449 17.242v0.003907c-2.1758 2.3711-4.9141 4.1562-7.9648 5.1836-4.0859 1.4023-8.5703 1.0859-12.418-0.87891-2.9414-1.5352-6.5664-0.39453-8.0977 2.543-1.5352 2.9375-0.39844 6.5625 2.543 8.0977 3.8203 2.0312 6.6523 5.5391 7.832 9.7031 1.4453 5.0742 0.78906 10.52-1.8242 15.105-9.457 16.957-16.797 29.613-24.48 41.832h0.003906c-0.48047 0.39844-0.89453 0.87109-1.2266 1.3984-2.7578 4.4414-7.1836 7.5898-12.285 8.7344-4.2422 0.94531-8.6875 0.125-12.312-2.2734-4.9648-3.832-7.6797-9.8945-7.2305-16.152 0.44922-6.2578 4-11.871 9.4648-14.957 5.4609-3.082 12.105-3.2227 17.695-0.375 2.8477 1.6953 6.5273 0.76172 8.2266-2.0859 1.6953-2.8477 0.76172-6.5312-2.0859-8.2266-3.9844-2.5391-6.8125-6.5352-7.8828-11.133-1.0703-4.5977-0.29688-9.4336 2.1562-13.465 0.79297-1.3906 1-3.043 0.57031-4.5859-0.42969-1.5391-1.457-2.8477-2.8555-3.6289-1.3984-0.77734-3.0508-0.96875-4.5898-0.52344-1.5352 0.44141-2.832 1.4844-3.6016 2.8906-4.6289 8.1172-5.3594 17.887-1.9844 26.602-9.2188 1.2695-17.41 6.5352-22.391 14.398-4.9805 7.8594-6.2461 17.516-3.457 26.395-9.2539 0.74609-17.707 5.5352-23.102 13.094s-7.1797 17.109-4.875 26.105c-9.2695 0.22656-17.961 4.5352-23.754 11.773-5.793 7.2344-8.0977 16.66-6.293 25.754-9.2891-0.4375-18.266 3.4102-24.352 10.438-5.3516 5.707-8.2422 13.293-8.0547 21.117 0.1875 7.8203 3.4375 15.258 9.0547 20.707 3.1484 3.0117 4.9336 7.1836 4.9336 11.543 0.027344 3.0938-0.71484 6.1484-2.1602 8.8867l-27.855-27.848c-2.3516-2.3047-6.1172-2.2852-8.4414 0.039063-2.3281 2.3281-2.3477 6.0938-0.042969 8.4414l27.848 27.855c-2.707 1.5234-5.7812 2.2695-8.8867 2.1641-4.3594-0.003906-8.5273-1.7852-11.543-4.9336-5.4492-5.6172-12.883-8.8672-20.707-9.0547-7.8203-0.19141-15.406 2.6992-21.117 8.0469-2.4688 2.2109-2.6797 6.0039-0.46875 8.4727 2.2109 2.4688 6.0039 2.6797 8.4727 0.46875 3.4141-3.1992 7.9336-4.9531 12.613-4.8945 4.6797 0.058594 9.1523 1.9258 12.488 5.2109 2.9766 3.1836 4.5273 7.4414 4.293 11.793-0.28125 5.1758-2.6289 10.02-6.5156 13.449-2.4688 2.2109-2.6797 6.0039-0.46875 8.4727 2.2109 2.4688 6.0039 2.6797 8.4727 0.46875 6.2969-5.5938 10.078-13.48 10.5-21.891 0.054687-1.3086 0.023437-2.6172-0.09375-3.9219 1.2969 0.19141 2.6016 0.29688 3.9102 0.3125 8.4688 0.32422 16.66-3.0625 22.43-9.2773 5.9766-5.9258 9.3203-14.012 9.2734-22.43-0.015625-1.3086-0.12109-2.6133-0.30859-3.9062 9.7734 0.85938 19.367-3.0078 25.809-10.406 2.2109-2.4688 2.0039-6.2617-0.46875-8.4727-2.4688-2.2109-6.2617-2-8.4727 0.46875-3.4258 3.8828-8.2695 6.2305-13.445 6.5156-4.3516 0.21875-8.6055-1.332-11.797-4.2969-4.2812-4.5547-5.9805-10.961-4.5195-17.043 1.457-6.0781 5.8789-11.016 11.762-13.137 5.8828-2.1172 12.438-1.1328 17.438 2.6211l0.023438 0.019531 17.645 14.941v-0.003906c2.5273 2.1406 6.3164 1.8281 8.4609-0.70312 2.1406-2.5312 1.8242-6.3203-0.70312-8.4609l-17.668-14.961c-4.5273-4.3203-6.5781-10.629-5.457-16.785 1.125-6.1562 5.2656-11.336 11.027-13.781 5.7617-2.4492 12.363-1.832 17.574 1.6367l0.003906 0.011719h0.003906c6.0664 4.5625 13.73 6.4531 21.227 5.2422 8.3359-1.3516 15.781-5.9961 20.66-12.891 20.012-27.422 38.184-56.141 54.391-85.969 4.1836-7.418 5.2109-16.207 2.8516-24.391-0.375-1.25-0.83203-2.4688-1.3633-3.6562 1.2773-0.24609 2.5312-0.57031 3.7617-0.97266 8.0742-2.7539 14.703-8.6328 18.398-16.32l0.023437-0.046875h0.003906c3.7734-7.6758 4.3047-16.543 1.4727-24.613-2.4961-7.1367-7.793-12.941-14.668-16.078l-0.011719-0.007813h-0.003906c-4.2461-2.1211-7.4961-5.8164-9.0547-10.305-1.5547-4.4844-1.2969-9.3984 0.72266-13.695 1.6875-4.4336 5.0195-8.043 9.3008-10.086 4.2812-2.0391 9.1836-2.3516 13.688-0.87109 1.4844 0.57812 3.1406 0.54297 4.5977-0.10156 1.457-0.64062 2.6016-1.8398 3.1758-3.3242 0.57422-1.4883 0.53516-3.1406-0.11328-4.5977-0.64844-1.457-1.8477-2.5977-3.3359-3.168zm-93.609 211.23c-2.9883 4.2617-7.5625 7.1445-12.695 8.0039-4.2969 0.71094-8.6953-0.35938-12.184-2.9609-3.6289-2.9648-5.9688-7.2148-6.5352-11.867s0.68359-9.3438 3.4922-13.094c3.5273-4.9961 9.2383-7.9922 15.355-8.0469 3.293-0.023438 6.5195 0.94531 9.2617 2.7734l0.027344 0.019531h0.003906c5.2109 3.5078 11.465 5.1211 17.723 4.5742-4.3047 6.2891-9.0352 13.012-14.449 20.598z" fill="#2c3d4f"/>
</svg>
