<?xml version="1.0" encoding="UTF-8"?>
<svg width="1200pt" height="1200pt" version="1.1" viewBox="0 0 1200 1200" xmlns="http://www.w3.org/2000/svg">
 <path d="m840 480h-178.12l-96.562-333.27c-0.75781-2.5938-1.5977-5.1953-2.5312-7.7539-10.969-30.121-33-54.168-62.051-67.715-29.039-13.535-61.621-14.965-91.754-3.9961-30.121 10.957-54.168 33-67.715 62.039-13.547 29.039-14.977 61.645-3.9961 91.777 0.92578 2.5312 1.9219 5.0039 3.0234 7.5234l111.08 251.39h-91.379v180h-210v360h180v120h60v-120h180v120h60v-120h180v120h60v-120h180v-360h-210zm-444.79-275.55c-0.5625-1.2734-1.0781-2.5781-1.5586-3.8867-5.4844-15.059-4.7656-31.355 2.0039-45.875 6.7695-14.52 18.793-25.535 33.852-31.02 6.707-2.4531 13.645-3.6641 20.555-3.6641 8.6406 0 17.258 1.8945 25.32 5.6523 14.52 6.7695 25.535 18.793 31.031 33.875 0.46875 1.2852 0.88672 2.5781 1.2617 3.8867l91.754 316.59h-82.441zm54.793 365.55h300v120h-300zm510 180v180h-720v-180z" fill="#003f7f"/>
</svg>
