<?xml version="1.0" encoding="UTF-8"?>
<svg width="1200pt" height="1200pt" version="1.1" viewBox="0 0 1200 1200" xmlns="http://www.w3.org/2000/svg">
 <path d="m97.781 199.78c18.938 0 32.062-8.5312 75.469-11.906 10.266 26.906 28.922 43.031 52.594 43.031h729.56v198.19c-67.219 36.891-142.82 86.719-134.81 222.66-19.031 17.812-31.172 33.141-35.625 47.859-7.1719 23.766 28.688 34.594 35.906 10.875 12.75-42.188 196.74-145.5 249.14-237.37 12.281-21.562-20.297-40.125-32.578-18.562-31.172 54.703-117.66 115.41-179.53 165.28 8.5312-166.08 184.03-149.81 228.79-249.66 52.125 129.84-39.516 272.9-164.48 283.22-24.75 2.0625-21.656 39.422 3.0938 37.406 171.56-14.203 281.26-228.32 166.82-387.94v-0.046875c-4.9219-6.7969-13.734-9.5156-21.656-6.6562-7.875 2.9062-12.891 10.688-12.234 19.031 3.5625 45.656-20.672 67.5-65.344 93.188v-181.22c14.766-6.1875 26.484-19.969 33.844-39.281 45.469 3.4688 55.5 11.906 75.469 11.906 88.312 0 77.156-153.71-19.828-128.53-18.234 4.7344-36.844 7.8281-55.594 9.2812-10.312-26.906-28.969-43.031-52.641-43.031h-748.31c-23.672 0-42.328 16.125-52.594 43.031-18.797-1.4531-37.406-4.5469-55.641-9.2344-96.703-25.125-108.61 128.48-19.828 128.48zm994.03-92.25c44.531-11.531 45.375 65.062 0 53.25v0.046875c-18.656-4.8281-37.688-8.1562-56.906-9.8906 0.9375-11.156 0.9375-22.312 0-33.469v0.046875c19.219-1.7812 38.25-5.1094 56.906-9.9375zm-865.97-32.531h748.31c31.594 0 31.594 118.41 0 118.41h-748.31c-31.594 0-31.594-118.41 0-118.41zm-117.66 32.531h-0.046875c18.703 4.875 37.734 8.2031 56.953 9.9844h0.046875c-1.0312 11.109-1.0312 22.266-0.046875 33.375v0.046875c-19.219 1.7344-38.25 5.0625-56.953 9.8906-45.375 11.812-44.391-64.734 0.046875-53.297z" fill="#2c3d4f"/>
 <path d="m1082.4 1002.8c-18.234 4.7344-36.844 7.8281-55.641 9.2812-7.4062-19.312-19.125-33.094-33.844-39.281v-228.1c0-24.797-37.5-24.797-37.5 0v224.34h-710.81v-676.4c0-24.797-37.5-24.797-37.5 0v680.16c-14.766 6.1875-26.484 19.969-33.844 39.281h-0.046875c-18.75-1.4531-37.359-4.5469-55.594-9.2812-96.656-25.125-108.56 128.53-19.828 128.53 18.938 0 32.062-8.5312 75.469-11.906 10.266 26.906 28.922 43.031 52.594 43.031h748.31c23.672 0 42.328-16.125 52.594-43.031 18.797 1.4531 37.406 4.5469 55.641 9.2812 105.42 27.375 106.92-153.74 0-125.9zm-974.21 89.625c-44.344 11.531-45.375-65.062 0-53.25l-0.046876-0.046875c18.703 4.8281 37.734 8.1562 56.953 9.8906h0.046874c-1.0312 11.156-1.0312 22.312-0.046874 33.469-19.219 1.7344-38.25 5.0625-56.953 9.9375zm865.97 32.531h-748.31c-12.984 0-24-27.094-24-59.203 0-32.062 11.016-59.203 24-59.203h748.31c12.984 0 24 27.094 24 59.203s-11.016 59.203-24 59.203zm117.66-32.531c-18.656-4.875-37.688-8.2031-56.906-9.9844v0.046875c0.9375-11.156 0.9375-22.312 0-33.469 19.219-1.7344 38.25-5.0625 56.906-9.8906 44.531-11.578 45.328 65.016 0 53.297z" fill="#2c3d4f"/>
 <path d="m899.16 423.1v-32.438c0-4.9688-1.9688-9.75-5.4844-13.266s-8.2969-5.4844-13.266-5.4844c-36.422-0.046875-65.953-29.578-66-66 0-4.9688-1.9688-9.75-5.4844-13.266s-8.2969-5.4844-13.266-5.4844h-391.4c-10.359 0-18.75 8.3906-18.75 18.75-0.046874 36.422-29.578 65.953-66 66-10.359 0-18.75 8.3906-18.75 18.75v418.69c0 4.9688 1.9688 9.75 5.4844 13.266 3.5156 3.5156 8.2969 5.4844 13.266 5.4844 36.422 0.046876 65.953 29.578 66 66 0 4.9688 1.9688 9.75 5.4844 13.266 3.5156 3.5156 8.2969 5.4844 13.266 5.4844h391.4c4.9688 0 9.75-1.9688 13.266-5.4844 3.5156-3.5156 5.4844-8.2969 5.4844-13.266 0.046875-36.422 29.578-65.953 66-66 4.9688 0 9.75-1.9688 13.266-5.4844 3.5156-3.5156 5.4844-8.2969 5.4844-13.266v-64.594c0-24.797-37.5-24.797-37.5 0v47.531c-42.188 7.875-75.188 40.875-83.062 83.062h-357.19c-7.875-42.188-40.875-75.188-83.062-83.062v-384.47c42.188-7.8281 75.188-40.828 83.062-83.062h357.19c7.875 42.234 40.875 75.234 83.062 83.062v15.375c0 24.703 37.5 24.703 37.5-0.09375z" fill="#2c3d4f"/>
 <path d="m770.48 404.34h-340.97c-24.844 0-24.844 37.5 0 37.5h340.97c24.797 0 24.797-37.5 0-37.5z" fill="#2c3d4f"/>
 <path d="m770.48 521.53h-340.97c-24.844 0-24.844 37.5 0 37.5h340.97c24.797 0 24.797-37.5 0-37.5z" fill="#2c3d4f"/>
 <path d="m720.89 638.72h-291.37c-24.844 0-24.844 37.5 0 37.5h291.37c24.797 0 24.797-37.5 0-37.5z" fill="#2c3d4f"/>
 <path d="m720.89 755.9h-291.37c-24.844 0-24.844 37.5 0 37.5h291.37c24.797 0 24.797-37.5 0-37.5z" fill="#2c3d4f"/>
</svg>
