<?xml version="1.0" encoding="UTF-8"?>
<svg width="1200pt" height="1200pt" version="1.1" viewBox="0 0 1200 1200" xmlns="http://www.w3.org/2000/svg">
 <path d="m715.2 570c40.801-33.602 68.398-84 68.398-141.6 0-100.8-81.602-182.4-182.4-182.4-100.8 0-182.4 81.602-182.4 182.4 0 57.602 26.398 108 68.398 141.6-68.398 24-122.4 84-132 159.6l-15.602 115.2c-1.1992 10.801 1.1992 21.602 8.3984 30 7.1992 8.3984 18 13.199 28.801 13.199h452.4c10.801 0 21.602-4.8008 28.801-13.199 7.1992-8.3984 10.801-19.199 8.3984-30l-15.602-115.2c-14.395-74.402-67.191-135.6-135.59-159.6zm-115.2-248.4c60 0 108 48 108 108s-48 108-108 108-108-48-108-108 48-108 108-108zm-183.6 492 9.6016-73.199c8.3984-61.199 61.199-106.8 122.4-106.8h102c61.199 0 114 45.602 122.4 106.8l9.6016 73.199z" fill="#2c3d4f"/>
 <path d="m600 30c-314.4 0-570 255.6-570 570s255.6 570 570 570 570-255.6 570-570-255.6-570-570-570zm0 1065.6c-273.6 0-495.6-222-495.6-495.6s222-495.6 495.6-495.6c272.4 0 495.6 222 495.6 495.6s-222 495.6-495.6 495.6z" fill="#2c3d4f"/>
</svg>
