<?xml version="1.0" encoding="UTF-8"?>
<svg width="800pt" height="800pt" version="1.1" viewBox="0 0 800 800" xmlns="http://www.w3.org/2000/svg">
 <path d="m800 400c0 142.91-76.24 274.96-200 346.41-123.76 71.453-276.24 71.453-400 0-123.76-71.453-200-203.5-200-346.41s76.24-274.96 200-346.41c123.76-71.453 276.24-71.453 400 0 123.76 71.453 200 203.5 200 346.41" fill="#ef4444"/>
 <path d="m600 300c0 16.57-13.43 30-30 30h-340c-16.57 0-30-13.43-30-30s13.43-30 30-30h340c16.57 0 30 13.43 30 30z" fill="#fff" opacity=".2"/>
</svg> 